G04 #@! TF.GenerationSoftware,KiCad,Pcbnew,5.99.0-unknown-r17856-55e56c6c*
G04 #@! TF.CreationDate,2020-05-30T10:45:51+03:00*
G04 #@! TF.ProjectId,airquality,61697271-7561-46c6-9974-792e6b696361,rev?*
G04 #@! TF.SameCoordinates,Original*
G04 #@! TF.FileFunction,Soldermask,Bot*
G04 #@! TF.FilePolarity,Negative*
%FSLAX46Y46*%
G04 Gerber Fmt 4.6, Leading zero omitted, Abs format (unit mm)*
G04 Created by KiCad (PCBNEW 5.99.0-unknown-r17856-55e56c6c) date 2020-05-30 10:45:51*
%MOMM*%
%LPD*%
G01*
G04 APERTURE LIST*
%ADD10O,1.800000X1.800000*%
%ADD11R,1.800000X1.800000*%
%ADD12O,0.750000X0.750000*%
%ADD13R,0.750000X0.750000*%
%ADD14C,3.300000*%
G04 APERTURE END LIST*
D10*
X174117000Y-94742000D03*
X171577000Y-94742000D03*
X169037000Y-92075000D03*
X174117000Y-92075000D03*
X171577000Y-92075000D03*
D11*
X166497000Y-92075000D03*
D10*
X179197000Y-92075000D03*
X184277000Y-92075000D03*
X186817000Y-92075000D03*
X181737000Y-92075000D03*
X176657000Y-92075000D03*
X169037000Y-94742000D03*
D11*
X166497000Y-94742000D03*
D10*
X179197000Y-94742000D03*
X184277000Y-94742000D03*
X186817000Y-94742000D03*
X181737000Y-94742000D03*
X176657000Y-94742000D03*
X189357000Y-94742000D03*
X189357000Y-92075000D03*
X169037000Y-69088000D03*
X174117000Y-69088000D03*
X171577000Y-69088000D03*
D11*
X166497000Y-69088000D03*
D10*
X179197000Y-69088000D03*
X184277000Y-69088000D03*
X186817000Y-69088000D03*
X181737000Y-69088000D03*
X176657000Y-69088000D03*
X189357000Y-69088000D03*
X169037000Y-66421000D03*
X171577000Y-66421000D03*
D11*
X166497000Y-66421000D03*
D10*
X174117000Y-66421000D03*
X179197000Y-66421000D03*
X176657000Y-66421000D03*
X181737000Y-66421000D03*
X184277000Y-66421000D03*
X186817000Y-66421000D03*
X189357000Y-66421000D03*
D12*
X150350980Y-60338200D03*
X151350980Y-60338200D03*
X150350980Y-61338200D03*
X151350980Y-61338200D03*
X150350980Y-62338200D03*
X151350980Y-62338200D03*
X150350980Y-63338200D03*
X151350980Y-63338200D03*
X150350980Y-64338200D03*
D13*
X151350980Y-64338200D03*
D10*
X188061600Y-53314600D03*
X188061600Y-55854600D03*
D11*
X188061600Y-58394600D03*
D14*
X194462400Y-94451000D03*
X142462400Y-94451000D03*
X194462400Y-52451000D03*
X142462400Y-52451000D03*
M02*
