G04 #@! TF.GenerationSoftware,KiCad,Pcbnew,5.99.0-unknown-r17856-55e56c6c*
G04 #@! TF.CreationDate,2020-05-30T10:45:51+03:00*
G04 #@! TF.ProjectId,airquality,61697271-7561-46c6-9974-792e6b696361,rev?*
G04 #@! TF.SameCoordinates,Original*
G04 #@! TF.FileFunction,Copper,L2,Bot*
G04 #@! TF.FilePolarity,Positive*
%FSLAX46Y46*%
G04 Gerber Fmt 4.6, Leading zero omitted, Abs format (unit mm)*
G04 Created by KiCad (PCBNEW 5.99.0-unknown-r17856-55e56c6c) date 2020-05-30 10:45:51*
%MOMM*%
%LPD*%
G01*
G04 APERTURE LIST*
G04 #@! TA.AperFunction,ComponentPad*
%ADD10O,1.700000X1.700000*%
G04 #@! TD*
G04 #@! TA.AperFunction,ComponentPad*
%ADD11R,1.700000X1.700000*%
G04 #@! TD*
G04 #@! TA.AperFunction,ComponentPad*
%ADD12O,0.650000X0.650000*%
G04 #@! TD*
G04 #@! TA.AperFunction,ComponentPad*
%ADD13R,0.650000X0.650000*%
G04 #@! TD*
G04 #@! TA.AperFunction,Conductor*
%ADD14C,0.750000*%
G04 #@! TD*
G04 #@! TA.AperFunction,Conductor*
%ADD15C,0.254000*%
G04 #@! TD*
G04 APERTURE END LIST*
D10*
X174117000Y-94742000D03*
X171577000Y-94742000D03*
X169037000Y-92075000D03*
X174117000Y-92075000D03*
X171577000Y-92075000D03*
D11*
X166497000Y-92075000D03*
D10*
X179197000Y-92075000D03*
X184277000Y-92075000D03*
X186817000Y-92075000D03*
X181737000Y-92075000D03*
X176657000Y-92075000D03*
X169037000Y-94742000D03*
D11*
X166497000Y-94742000D03*
D10*
X179197000Y-94742000D03*
X184277000Y-94742000D03*
X186817000Y-94742000D03*
X181737000Y-94742000D03*
X176657000Y-94742000D03*
X189357000Y-94742000D03*
X189357000Y-92075000D03*
X169037000Y-69088000D03*
X174117000Y-69088000D03*
X171577000Y-69088000D03*
D11*
X166497000Y-69088000D03*
D10*
X179197000Y-69088000D03*
X184277000Y-69088000D03*
X186817000Y-69088000D03*
X181737000Y-69088000D03*
X176657000Y-69088000D03*
X189357000Y-69088000D03*
X169037000Y-66421000D03*
X171577000Y-66421000D03*
D11*
X166497000Y-66421000D03*
D10*
X174117000Y-66421000D03*
X179197000Y-66421000D03*
X176657000Y-66421000D03*
X181737000Y-66421000D03*
X184277000Y-66421000D03*
X186817000Y-66421000D03*
X189357000Y-66421000D03*
D12*
X150350980Y-60338200D03*
X151350980Y-60338200D03*
X150350980Y-61338200D03*
X151350980Y-61338200D03*
X150350980Y-62338200D03*
X151350980Y-62338200D03*
X150350980Y-63338200D03*
X151350980Y-63338200D03*
X150350980Y-64338200D03*
D13*
X151350980Y-64338200D03*
D10*
X188061600Y-53314600D03*
X188061600Y-55854600D03*
D11*
X188061600Y-58394600D03*
D14*
X155244800Y-65506600D02*
X155244800Y-64599820D01*
X152983180Y-62338200D02*
X151350980Y-62338200D01*
X155244800Y-64599820D02*
X152983180Y-62338200D01*
X151350980Y-60338200D02*
X157434780Y-60338200D01*
X157434780Y-60338200D02*
X161950400Y-64853820D01*
X161950400Y-64853820D02*
X161950400Y-65532000D01*
X155244800Y-65506600D02*
X155244800Y-76898500D01*
X161950400Y-65532000D02*
X161950400Y-68199000D01*
X155244800Y-76898500D02*
X166497000Y-88150700D01*
X166497000Y-88150700D02*
X166497000Y-92075000D01*
X187413900Y-85674200D02*
X184277000Y-88811100D01*
X196138800Y-58534300D02*
X196138800Y-82359500D01*
X188061600Y-53314600D02*
X190919100Y-53314600D01*
X192824100Y-85674200D02*
X187413900Y-85674200D01*
X184277000Y-88811100D02*
X184277000Y-92075000D01*
X196138800Y-82359500D02*
X192824100Y-85674200D01*
X190919100Y-53314600D02*
X196138800Y-58534300D01*
X174117000Y-88582500D02*
X174117000Y-92075000D01*
X193903600Y-78981300D02*
X189255400Y-83629500D01*
X175171100Y-87528400D02*
X174117000Y-88582500D01*
X189255400Y-83629500D02*
X185712100Y-83629500D01*
X188061600Y-55854600D02*
X190525400Y-55854600D01*
X181813200Y-87528400D02*
X175171100Y-87528400D01*
X193903600Y-59232800D02*
X193903600Y-78981300D01*
X190525400Y-55854600D02*
X193903600Y-59232800D01*
X185712100Y-83629500D02*
X181813200Y-87528400D01*
X176657000Y-70815200D02*
X176657000Y-69088000D01*
X163728400Y-71462900D02*
X176009300Y-71462900D01*
X161950400Y-68199000D02*
X161950400Y-69684900D01*
X176009300Y-71462900D02*
X176657000Y-70815200D01*
X161950400Y-69684900D02*
X163728400Y-71462900D01*
G36*
X193065876Y-50700992D02*
G01*
X193059181Y-50706357D01*
X192841294Y-50906713D01*
X192835388Y-50912937D01*
X192646709Y-51141011D01*
X192641702Y-51147979D01*
X192485723Y-51399549D01*
X192481708Y-51407131D01*
X192361312Y-51677543D01*
X192358364Y-51685601D01*
X192275782Y-51969850D01*
X192273954Y-51978233D01*
X192230713Y-52271059D01*
X192230040Y-52279613D01*
X192226941Y-52575598D01*
X192227435Y-52584164D01*
X192264533Y-52877832D01*
X192266185Y-52886252D01*
X192342797Y-53172168D01*
X192345576Y-53180285D01*
X192440594Y-53406326D01*
X191680845Y-52646577D01*
X191645224Y-52600155D01*
X191633545Y-52588476D01*
X191435570Y-52436565D01*
X191421266Y-52428307D01*
X191190719Y-52332811D01*
X191174765Y-52328536D01*
X190993546Y-52304678D01*
X190927359Y-52295964D01*
X190910841Y-52295964D01*
X190852842Y-52303600D01*
X189152953Y-52303600D01*
X189142613Y-52290739D01*
X189135247Y-52283017D01*
X188954649Y-52123238D01*
X188946086Y-52116867D01*
X188741149Y-51989802D01*
X188731636Y-51984965D01*
X188508219Y-51894245D01*
X188498027Y-51891080D01*
X188262519Y-51839300D01*
X188251940Y-51837898D01*
X188011075Y-51826539D01*
X188000409Y-51826939D01*
X187761074Y-51856327D01*
X187750630Y-51858518D01*
X187519668Y-51927810D01*
X187509742Y-51931730D01*
X187293755Y-52038946D01*
X187284632Y-52044482D01*
X187089799Y-52186557D01*
X187081738Y-52193552D01*
X186913629Y-52366422D01*
X186906863Y-52374674D01*
X186770283Y-52573398D01*
X186765003Y-52582673D01*
X186663860Y-52801568D01*
X186660218Y-52811600D01*
X186597402Y-53044407D01*
X186595503Y-53054909D01*
X186572811Y-53294972D01*
X186572709Y-53305643D01*
X186590788Y-53546097D01*
X186592485Y-53556634D01*
X186650821Y-53790605D01*
X186654269Y-53800704D01*
X186751191Y-54021500D01*
X186756292Y-54030875D01*
X186889030Y-54232184D01*
X186895638Y-54240565D01*
X187060398Y-54416632D01*
X187068322Y-54423780D01*
X187260392Y-54569568D01*
X187269408Y-54575279D01*
X187285766Y-54583794D01*
X187284632Y-54584482D01*
X187089799Y-54726557D01*
X187081738Y-54733552D01*
X186913629Y-54906422D01*
X186906863Y-54914674D01*
X186770283Y-55113398D01*
X186765003Y-55122673D01*
X186663860Y-55341568D01*
X186660218Y-55351600D01*
X186597402Y-55584407D01*
X186595503Y-55594909D01*
X186572811Y-55834972D01*
X186572709Y-55845643D01*
X186590788Y-56086097D01*
X186592485Y-56096634D01*
X186650821Y-56330605D01*
X186654269Y-56340704D01*
X186751191Y-56561500D01*
X186756292Y-56570875D01*
X186889030Y-56772184D01*
X186895638Y-56780565D01*
X187047081Y-56942401D01*
X186907742Y-56979737D01*
X186883262Y-56992480D01*
X186727010Y-57123590D01*
X186712839Y-57140479D01*
X186612241Y-57314720D01*
X186604700Y-57335437D01*
X186570722Y-57528138D01*
X186569763Y-57539099D01*
X186569763Y-58192791D01*
X186643572Y-58266600D01*
X187859792Y-58266601D01*
X187859793Y-58266600D01*
X189479628Y-58266601D01*
X189553437Y-58192792D01*
X189553437Y-57536342D01*
X189551281Y-57519966D01*
X189476463Y-57240742D01*
X189463720Y-57216262D01*
X189332610Y-57060010D01*
X189315721Y-57045839D01*
X189141480Y-56945241D01*
X189120763Y-56937700D01*
X189085924Y-56931557D01*
X189115245Y-56906603D01*
X189122758Y-56899024D01*
X189150705Y-56865600D01*
X190106632Y-56865600D01*
X192892600Y-59651569D01*
X192892601Y-78562530D01*
X188836632Y-82618500D01*
X185778350Y-82618500D01*
X185720358Y-82610865D01*
X185703840Y-82610865D01*
X185641751Y-82619039D01*
X185641742Y-82619040D01*
X185456435Y-82643436D01*
X185440481Y-82647711D01*
X185306738Y-82703109D01*
X185209933Y-82743207D01*
X185195629Y-82751465D01*
X185074626Y-82844315D01*
X184997655Y-82903376D01*
X184985976Y-82915055D01*
X184950358Y-82961473D01*
X181394432Y-86517400D01*
X175237359Y-86517400D01*
X175179359Y-86509764D01*
X175162841Y-86509764D01*
X175096653Y-86518478D01*
X174915435Y-86542336D01*
X174899481Y-86546611D01*
X174668934Y-86642107D01*
X174654630Y-86650365D01*
X174456655Y-86802276D01*
X174444975Y-86813956D01*
X174409356Y-86860376D01*
X173448977Y-87820755D01*
X173402555Y-87856376D01*
X173390876Y-87868056D01*
X173319289Y-87961351D01*
X173231329Y-88075982D01*
X173225968Y-88091776D01*
X173135211Y-88310882D01*
X173130936Y-88326836D01*
X173107078Y-88508052D01*
X173098364Y-88574242D01*
X173098364Y-88590759D01*
X173106000Y-88648758D01*
X173106001Y-90985971D01*
X172969029Y-91126822D01*
X172962263Y-91135074D01*
X172846229Y-91303903D01*
X172815067Y-91247916D01*
X172809107Y-91239064D01*
X172658013Y-91051140D01*
X172650647Y-91043417D01*
X172470049Y-90883638D01*
X172461486Y-90877267D01*
X172256549Y-90750202D01*
X172247036Y-90745365D01*
X172023619Y-90654645D01*
X172013427Y-90651480D01*
X171777919Y-90599700D01*
X171767340Y-90598298D01*
X171526475Y-90586939D01*
X171515809Y-90587339D01*
X171276474Y-90616727D01*
X171266030Y-90618918D01*
X171035068Y-90688210D01*
X171025142Y-90692130D01*
X170809155Y-90799346D01*
X170800032Y-90804882D01*
X170605199Y-90946957D01*
X170597138Y-90953952D01*
X170429029Y-91126822D01*
X170422263Y-91135074D01*
X170306229Y-91303903D01*
X170275067Y-91247916D01*
X170269107Y-91239064D01*
X170118013Y-91051140D01*
X170110647Y-91043417D01*
X169930049Y-90883638D01*
X169921486Y-90877267D01*
X169716549Y-90750202D01*
X169707036Y-90745365D01*
X169483619Y-90654645D01*
X169473427Y-90651480D01*
X169237919Y-90599700D01*
X169227340Y-90598298D01*
X168986475Y-90586939D01*
X168975809Y-90587339D01*
X168736474Y-90616727D01*
X168726030Y-90618918D01*
X168495068Y-90688210D01*
X168485142Y-90692130D01*
X168269155Y-90799346D01*
X168260032Y-90804882D01*
X168065199Y-90946957D01*
X168057138Y-90953952D01*
X167950137Y-91063983D01*
X167911863Y-90921142D01*
X167899120Y-90896662D01*
X167768010Y-90740410D01*
X167751121Y-90726239D01*
X167576880Y-90625641D01*
X167556163Y-90618101D01*
X167508000Y-90609608D01*
X167508000Y-88216958D01*
X167515636Y-88158959D01*
X167515636Y-88142442D01*
X167506922Y-88076253D01*
X167483064Y-87895035D01*
X167478789Y-87879081D01*
X167383293Y-87648534D01*
X167375035Y-87634230D01*
X167223124Y-87436255D01*
X167211444Y-87424576D01*
X167165031Y-87388962D01*
X156255800Y-76479732D01*
X156255800Y-64666079D01*
X156263436Y-64608078D01*
X156263436Y-64591561D01*
X156230864Y-64344155D01*
X156226589Y-64328201D01*
X156131093Y-64097654D01*
X156122835Y-64083350D01*
X156011565Y-63938339D01*
X155970924Y-63885375D01*
X155959245Y-63873696D01*
X155912827Y-63838078D01*
X153744925Y-61670177D01*
X153709304Y-61623755D01*
X153697625Y-61612076D01*
X153499650Y-61460165D01*
X153485346Y-61451907D01*
X153254799Y-61356411D01*
X153238845Y-61352136D01*
X153216544Y-61349200D01*
X157016012Y-61349200D01*
X160939400Y-65272589D01*
X160939400Y-65474000D01*
X160939401Y-68136514D01*
X160939400Y-68136528D01*
X160939401Y-69618635D01*
X160931764Y-69676641D01*
X160931764Y-69693159D01*
X160957305Y-69887153D01*
X160964337Y-69940566D01*
X160968612Y-69956520D01*
X160987119Y-70001198D01*
X161064106Y-70187066D01*
X161072365Y-70201370D01*
X161183558Y-70346278D01*
X161224277Y-70399345D01*
X161235956Y-70411024D01*
X161282374Y-70446642D01*
X162966658Y-72130927D01*
X163002276Y-72177345D01*
X163013955Y-72189024D01*
X163066919Y-72229665D01*
X163211930Y-72340935D01*
X163226234Y-72349193D01*
X163456781Y-72444689D01*
X163472735Y-72448964D01*
X163720141Y-72481536D01*
X163736658Y-72481536D01*
X163794659Y-72473900D01*
X175943042Y-72473900D01*
X176001041Y-72481536D01*
X176017559Y-72481536D01*
X176083746Y-72472822D01*
X176264965Y-72448964D01*
X176280919Y-72444689D01*
X176511466Y-72349193D01*
X176525770Y-72340935D01*
X176723745Y-72189024D01*
X176735424Y-72177345D01*
X176771042Y-72130927D01*
X177325031Y-71576939D01*
X177371445Y-71541324D01*
X177383124Y-71529645D01*
X177430596Y-71467777D01*
X177535035Y-71331671D01*
X177543293Y-71317367D01*
X177572573Y-71246682D01*
X177638789Y-71086820D01*
X177643064Y-71070865D01*
X177667460Y-70885558D01*
X177667461Y-70885549D01*
X177675635Y-70823460D01*
X177675635Y-70806942D01*
X177668000Y-70748950D01*
X177668000Y-70176297D01*
X177710645Y-70140003D01*
X177718158Y-70132424D01*
X177872833Y-69947435D01*
X177878962Y-69938698D01*
X177926486Y-69857043D01*
X178024430Y-70005584D01*
X178031038Y-70013965D01*
X178195798Y-70190032D01*
X178203722Y-70197180D01*
X178395792Y-70342968D01*
X178404808Y-70348679D01*
X178618696Y-70460021D01*
X178628545Y-70464131D01*
X178858134Y-70537844D01*
X178868535Y-70540236D01*
X179107262Y-70574212D01*
X179117917Y-70574817D01*
X179358956Y-70568084D01*
X179369561Y-70566885D01*
X179606019Y-70519636D01*
X179616270Y-70516667D01*
X179841387Y-70430253D01*
X179850991Y-70425600D01*
X180058330Y-70302491D01*
X180067012Y-70296286D01*
X180250645Y-70140004D01*
X180258158Y-70132424D01*
X180412833Y-69947435D01*
X180418962Y-69938698D01*
X180466486Y-69857043D01*
X180564430Y-70005584D01*
X180571038Y-70013965D01*
X180735798Y-70190032D01*
X180743722Y-70197180D01*
X180935792Y-70342968D01*
X180944808Y-70348679D01*
X181158696Y-70460021D01*
X181168545Y-70464131D01*
X181398134Y-70537845D01*
X181408535Y-70540236D01*
X181522162Y-70556407D01*
X181609000Y-70481052D01*
X181609001Y-68960000D01*
X181865000Y-68960001D01*
X181864999Y-70481748D01*
X181957217Y-70557362D01*
X182146019Y-70519636D01*
X182156270Y-70516667D01*
X182381387Y-70430253D01*
X182390991Y-70425600D01*
X182598330Y-70302491D01*
X182607012Y-70296286D01*
X182790645Y-70140004D01*
X182798158Y-70132424D01*
X182952833Y-69947435D01*
X182958962Y-69938698D01*
X183006486Y-69857043D01*
X183104430Y-70005584D01*
X183111038Y-70013965D01*
X183275798Y-70190032D01*
X183283722Y-70197180D01*
X183475792Y-70342968D01*
X183484808Y-70348679D01*
X183698696Y-70460021D01*
X183708545Y-70464131D01*
X183938134Y-70537844D01*
X183948535Y-70540236D01*
X184187262Y-70574212D01*
X184197917Y-70574817D01*
X184438956Y-70568084D01*
X184449561Y-70566885D01*
X184686019Y-70519636D01*
X184696270Y-70516667D01*
X184921387Y-70430253D01*
X184930991Y-70425600D01*
X185138330Y-70302491D01*
X185147012Y-70296286D01*
X185330645Y-70140004D01*
X185338158Y-70132424D01*
X185492833Y-69947435D01*
X185498962Y-69938698D01*
X185546486Y-69857043D01*
X185644430Y-70005584D01*
X185651038Y-70013965D01*
X185815798Y-70190032D01*
X185823722Y-70197180D01*
X186015792Y-70342968D01*
X186024808Y-70348679D01*
X186238696Y-70460021D01*
X186248545Y-70464131D01*
X186478134Y-70537844D01*
X186488535Y-70540236D01*
X186727262Y-70574212D01*
X186737917Y-70574817D01*
X186978956Y-70568084D01*
X186989561Y-70566885D01*
X187226019Y-70519636D01*
X187236270Y-70516667D01*
X187461387Y-70430253D01*
X187470991Y-70425600D01*
X187678330Y-70302491D01*
X187687012Y-70296286D01*
X187870645Y-70140004D01*
X187878158Y-70132424D01*
X188032833Y-69947435D01*
X188038962Y-69938698D01*
X188086486Y-69857043D01*
X188184430Y-70005584D01*
X188191038Y-70013965D01*
X188355798Y-70190032D01*
X188363722Y-70197180D01*
X188555792Y-70342968D01*
X188564808Y-70348679D01*
X188778696Y-70460021D01*
X188788545Y-70464131D01*
X189018134Y-70537844D01*
X189028535Y-70540236D01*
X189267262Y-70574212D01*
X189277917Y-70574817D01*
X189518956Y-70568084D01*
X189529561Y-70566885D01*
X189766019Y-70519636D01*
X189776270Y-70516667D01*
X190001387Y-70430253D01*
X190010991Y-70425600D01*
X190218330Y-70302491D01*
X190227012Y-70296286D01*
X190410645Y-70140004D01*
X190418158Y-70132424D01*
X190572833Y-69947435D01*
X190578962Y-69938698D01*
X190700256Y-69730294D01*
X190704825Y-69720650D01*
X190789272Y-69494787D01*
X190792151Y-69484511D01*
X190837392Y-69247351D01*
X190838507Y-69236128D01*
X190841077Y-68968341D01*
X190840178Y-68957099D01*
X190799499Y-68719114D01*
X190796817Y-68708784D01*
X190716723Y-68481343D01*
X190712339Y-68471612D01*
X190595067Y-68260916D01*
X190589107Y-68252064D01*
X190438013Y-68064140D01*
X190430647Y-68056417D01*
X190250049Y-67896638D01*
X190241486Y-67890267D01*
X190036549Y-67763202D01*
X190027036Y-67758365D01*
X190017742Y-67754591D01*
X190218330Y-67635491D01*
X190227012Y-67629286D01*
X190410645Y-67473004D01*
X190418158Y-67465424D01*
X190572833Y-67280435D01*
X190578962Y-67271698D01*
X190700256Y-67063294D01*
X190704825Y-67053650D01*
X190789272Y-66827787D01*
X190792151Y-66817511D01*
X190837392Y-66580351D01*
X190838507Y-66569128D01*
X190841077Y-66301341D01*
X190840178Y-66290099D01*
X190799499Y-66052114D01*
X190796817Y-66041784D01*
X190716723Y-65814343D01*
X190712339Y-65804612D01*
X190595067Y-65593916D01*
X190589107Y-65585064D01*
X190438013Y-65397140D01*
X190430647Y-65389417D01*
X190250049Y-65229638D01*
X190241486Y-65223267D01*
X190036549Y-65096202D01*
X190027036Y-65091365D01*
X189803619Y-65000645D01*
X189793427Y-64997480D01*
X189557919Y-64945700D01*
X189547340Y-64944298D01*
X189306475Y-64932939D01*
X189295809Y-64933339D01*
X189056474Y-64962727D01*
X189046030Y-64964918D01*
X188815068Y-65034210D01*
X188805142Y-65038130D01*
X188589155Y-65145346D01*
X188580032Y-65150882D01*
X188385199Y-65292957D01*
X188377138Y-65299952D01*
X188209029Y-65472822D01*
X188202263Y-65481074D01*
X188086229Y-65649903D01*
X188055067Y-65593916D01*
X188049107Y-65585064D01*
X187898013Y-65397140D01*
X187890647Y-65389417D01*
X187710049Y-65229638D01*
X187701486Y-65223267D01*
X187496549Y-65096202D01*
X187487036Y-65091365D01*
X187263619Y-65000645D01*
X187253427Y-64997480D01*
X187017919Y-64945700D01*
X187007340Y-64944298D01*
X186766475Y-64932939D01*
X186755809Y-64933339D01*
X186516474Y-64962727D01*
X186506030Y-64964918D01*
X186275068Y-65034210D01*
X186265142Y-65038130D01*
X186049155Y-65145346D01*
X186040032Y-65150882D01*
X185845199Y-65292957D01*
X185837138Y-65299952D01*
X185669029Y-65472822D01*
X185662263Y-65481074D01*
X185546229Y-65649903D01*
X185515067Y-65593916D01*
X185509107Y-65585064D01*
X185358013Y-65397140D01*
X185350647Y-65389417D01*
X185170049Y-65229638D01*
X185161486Y-65223267D01*
X184956549Y-65096202D01*
X184947036Y-65091365D01*
X184723619Y-65000645D01*
X184713427Y-64997480D01*
X184477919Y-64945700D01*
X184467340Y-64944298D01*
X184226475Y-64932939D01*
X184215809Y-64933339D01*
X183976474Y-64962727D01*
X183966030Y-64964918D01*
X183735068Y-65034210D01*
X183725142Y-65038130D01*
X183509155Y-65145346D01*
X183500032Y-65150882D01*
X183305199Y-65292957D01*
X183297138Y-65299952D01*
X183129029Y-65472822D01*
X183122263Y-65481074D01*
X183006229Y-65649903D01*
X182975067Y-65593916D01*
X182969107Y-65585064D01*
X182818013Y-65397140D01*
X182810647Y-65389417D01*
X182630049Y-65229638D01*
X182621486Y-65223267D01*
X182416549Y-65096202D01*
X182407036Y-65091365D01*
X182183619Y-65000645D01*
X182173427Y-64997480D01*
X181937919Y-64945700D01*
X181927340Y-64944298D01*
X181686475Y-64932939D01*
X181675809Y-64933339D01*
X181436474Y-64962727D01*
X181426030Y-64964918D01*
X181195068Y-65034210D01*
X181185142Y-65038130D01*
X180969155Y-65145346D01*
X180960032Y-65150882D01*
X180765199Y-65292957D01*
X180757138Y-65299952D01*
X180589029Y-65472822D01*
X180582263Y-65481074D01*
X180466229Y-65649903D01*
X180435067Y-65593916D01*
X180429107Y-65585064D01*
X180278013Y-65397140D01*
X180270647Y-65389417D01*
X180090049Y-65229638D01*
X180081486Y-65223267D01*
X179876549Y-65096202D01*
X179867036Y-65091365D01*
X179643619Y-65000645D01*
X179633427Y-64997480D01*
X179397919Y-64945700D01*
X179387340Y-64944298D01*
X179146475Y-64932939D01*
X179135809Y-64933339D01*
X178896474Y-64962727D01*
X178886030Y-64964918D01*
X178655068Y-65034210D01*
X178645142Y-65038130D01*
X178429155Y-65145346D01*
X178420032Y-65150882D01*
X178225199Y-65292957D01*
X178217138Y-65299952D01*
X178049029Y-65472822D01*
X178042263Y-65481074D01*
X177926229Y-65649903D01*
X177895067Y-65593916D01*
X177889107Y-65585064D01*
X177738013Y-65397140D01*
X177730647Y-65389417D01*
X177550049Y-65229638D01*
X177541486Y-65223267D01*
X177336549Y-65096202D01*
X177327036Y-65091365D01*
X177103619Y-65000645D01*
X177093427Y-64997480D01*
X176857919Y-64945700D01*
X176847340Y-64944298D01*
X176606475Y-64932939D01*
X176595809Y-64933339D01*
X176356474Y-64962727D01*
X176346030Y-64964918D01*
X176115068Y-65034210D01*
X176105142Y-65038130D01*
X175889155Y-65145346D01*
X175880032Y-65150882D01*
X175685199Y-65292957D01*
X175677138Y-65299952D01*
X175509029Y-65472822D01*
X175502263Y-65481074D01*
X175386229Y-65649903D01*
X175355067Y-65593916D01*
X175349107Y-65585064D01*
X175198013Y-65397140D01*
X175190647Y-65389417D01*
X175010049Y-65229638D01*
X175001486Y-65223267D01*
X174796549Y-65096202D01*
X174787036Y-65091365D01*
X174563619Y-65000645D01*
X174553427Y-64997480D01*
X174317919Y-64945700D01*
X174307340Y-64944298D01*
X174066475Y-64932939D01*
X174055809Y-64933339D01*
X173816474Y-64962727D01*
X173806030Y-64964918D01*
X173575068Y-65034210D01*
X173565142Y-65038130D01*
X173349155Y-65145346D01*
X173340032Y-65150882D01*
X173145199Y-65292957D01*
X173137138Y-65299952D01*
X172969029Y-65472822D01*
X172962263Y-65481074D01*
X172846229Y-65649903D01*
X172815067Y-65593916D01*
X172809107Y-65585064D01*
X172658013Y-65397140D01*
X172650647Y-65389417D01*
X172470049Y-65229638D01*
X172461486Y-65223267D01*
X172256549Y-65096202D01*
X172247036Y-65091365D01*
X172023619Y-65000645D01*
X172013427Y-64997480D01*
X171777919Y-64945700D01*
X171767340Y-64944298D01*
X171526475Y-64932939D01*
X171515809Y-64933339D01*
X171276474Y-64962727D01*
X171266030Y-64964918D01*
X171035068Y-65034210D01*
X171025142Y-65038130D01*
X170809155Y-65145346D01*
X170800032Y-65150882D01*
X170605199Y-65292957D01*
X170597138Y-65299952D01*
X170429029Y-65472822D01*
X170422263Y-65481074D01*
X170306229Y-65649903D01*
X170275067Y-65593916D01*
X170269107Y-65585064D01*
X170118013Y-65397140D01*
X170110647Y-65389417D01*
X169930049Y-65229638D01*
X169921486Y-65223267D01*
X169716549Y-65096202D01*
X169707036Y-65091365D01*
X169483619Y-65000645D01*
X169473427Y-64997480D01*
X169237919Y-64945700D01*
X169227340Y-64944298D01*
X168986475Y-64932939D01*
X168975809Y-64933339D01*
X168736474Y-64962727D01*
X168726030Y-64964918D01*
X168495068Y-65034210D01*
X168485142Y-65038130D01*
X168269155Y-65145346D01*
X168260032Y-65150882D01*
X168065199Y-65292957D01*
X168057138Y-65299952D01*
X167950137Y-65409983D01*
X167911863Y-65267142D01*
X167899120Y-65242662D01*
X167768010Y-65086410D01*
X167751121Y-65072239D01*
X167576880Y-64971641D01*
X167556163Y-64964100D01*
X167363462Y-64930122D01*
X167352501Y-64929163D01*
X166698809Y-64929163D01*
X166625000Y-65002972D01*
X166624999Y-66219192D01*
X166625000Y-66219193D01*
X166624999Y-66549000D01*
X165078972Y-66548999D01*
X165005163Y-66622808D01*
X165005163Y-67279258D01*
X165007319Y-67295634D01*
X165082137Y-67574859D01*
X165094880Y-67599339D01*
X165225990Y-67755590D01*
X165230787Y-67759615D01*
X165162410Y-67816990D01*
X165148239Y-67833879D01*
X165047641Y-68008120D01*
X165040100Y-68028837D01*
X165006122Y-68221538D01*
X165005163Y-68232499D01*
X165005163Y-69946258D01*
X165007319Y-69962634D01*
X165082137Y-70241859D01*
X165094880Y-70266339D01*
X165225990Y-70422590D01*
X165242879Y-70436761D01*
X165269101Y-70451900D01*
X164147169Y-70451900D01*
X162961400Y-69266132D01*
X162961400Y-65565499D01*
X165005163Y-65565499D01*
X165005163Y-66219191D01*
X165078972Y-66293000D01*
X166295191Y-66293001D01*
X166369000Y-66219192D01*
X166369001Y-65002972D01*
X166295192Y-64929163D01*
X165638742Y-64929163D01*
X165622366Y-64931319D01*
X165343142Y-65006137D01*
X165318662Y-65018880D01*
X165162410Y-65149990D01*
X165148239Y-65166879D01*
X165047641Y-65341120D01*
X165040100Y-65361837D01*
X165006122Y-65554538D01*
X165005163Y-65565499D01*
X162961400Y-65565499D01*
X162961400Y-64920077D01*
X162969036Y-64862078D01*
X162969036Y-64845560D01*
X162960322Y-64779372D01*
X162936464Y-64598155D01*
X162932189Y-64582201D01*
X162851040Y-64386289D01*
X162836694Y-64351654D01*
X162828435Y-64337349D01*
X162717164Y-64192339D01*
X162676524Y-64139375D01*
X162664844Y-64127696D01*
X162618431Y-64092082D01*
X158196525Y-59670177D01*
X158160904Y-59623755D01*
X158149225Y-59612076D01*
X157951250Y-59460165D01*
X157936946Y-59451907D01*
X157706399Y-59356411D01*
X157690445Y-59352136D01*
X157509226Y-59328278D01*
X157443039Y-59319564D01*
X157426521Y-59319564D01*
X157368522Y-59327200D01*
X151288854Y-59327200D01*
X151280622Y-59327740D01*
X151095315Y-59352136D01*
X151079361Y-59356411D01*
X150848814Y-59451907D01*
X150834510Y-59460165D01*
X150796800Y-59489101D01*
X150715281Y-59445757D01*
X150702610Y-59440689D01*
X150515145Y-59388347D01*
X150501680Y-59386117D01*
X150307347Y-59375253D01*
X150293718Y-59375967D01*
X150101587Y-59407086D01*
X150088429Y-59410710D01*
X149907462Y-59482360D01*
X149895389Y-59488725D01*
X149734029Y-59597564D01*
X149723604Y-59606373D01*
X149589379Y-59747323D01*
X149581090Y-59758165D01*
X149480264Y-59924650D01*
X149474496Y-59937019D01*
X149411772Y-60121269D01*
X149408795Y-60134588D01*
X149387099Y-60328011D01*
X149387051Y-60341659D01*
X149407396Y-60535228D01*
X149410280Y-60548568D01*
X149471717Y-60733253D01*
X149477398Y-60745662D01*
X149532590Y-60838248D01*
X149480264Y-60924650D01*
X149474496Y-60937019D01*
X149411772Y-61121269D01*
X149408795Y-61134588D01*
X149387099Y-61328011D01*
X149387051Y-61341659D01*
X149407396Y-61535228D01*
X149410280Y-61548568D01*
X149471717Y-61733253D01*
X149477398Y-61745662D01*
X149532590Y-61838248D01*
X149480264Y-61924650D01*
X149474496Y-61937019D01*
X149411772Y-62121269D01*
X149408795Y-62134588D01*
X149387099Y-62328011D01*
X149387051Y-62341659D01*
X149407396Y-62535228D01*
X149410280Y-62548568D01*
X149471717Y-62733253D01*
X149477398Y-62745662D01*
X149532590Y-62838248D01*
X149480264Y-62924650D01*
X149474496Y-62937019D01*
X149417347Y-63104895D01*
X149492738Y-63210200D01*
X149949213Y-63210201D01*
X150081960Y-63263834D01*
X150095092Y-63267551D01*
X150287003Y-63300010D01*
X150300626Y-63300819D01*
X150495029Y-63291311D01*
X150508509Y-63289176D01*
X150696335Y-63238145D01*
X150709042Y-63233165D01*
X150752969Y-63210200D01*
X150826647Y-63210201D01*
X150834511Y-63216235D01*
X150848814Y-63224493D01*
X151079361Y-63319989D01*
X151095315Y-63324264D01*
X151280622Y-63348660D01*
X151288854Y-63349200D01*
X152564412Y-63349200D01*
X154233801Y-65018589D01*
X154233800Y-65448599D01*
X154233800Y-65448600D01*
X154233801Y-76832235D01*
X154226164Y-76890241D01*
X154226164Y-76906759D01*
X154258737Y-77154164D01*
X154263012Y-77170118D01*
X154358506Y-77400666D01*
X154366765Y-77414970D01*
X154478036Y-77559980D01*
X154518677Y-77612945D01*
X154530356Y-77624624D01*
X154576774Y-77660242D01*
X165486000Y-88569469D01*
X165486001Y-90621858D01*
X165343142Y-90660137D01*
X165318662Y-90672880D01*
X165162410Y-90803990D01*
X165148239Y-90820879D01*
X165047641Y-90995120D01*
X165040100Y-91015837D01*
X165006122Y-91208538D01*
X165005163Y-91219499D01*
X165005163Y-92933258D01*
X165007319Y-92949634D01*
X165082137Y-93228859D01*
X165094880Y-93253339D01*
X165225990Y-93409590D01*
X165230787Y-93413615D01*
X165162410Y-93470990D01*
X165148239Y-93487879D01*
X165047641Y-93662120D01*
X165040100Y-93682837D01*
X165006122Y-93875538D01*
X165005163Y-93886499D01*
X165005163Y-94540191D01*
X165078972Y-94614000D01*
X166295192Y-94614001D01*
X166295193Y-94614000D01*
X166625000Y-94614001D01*
X166624999Y-96160028D01*
X166698808Y-96233837D01*
X167355258Y-96233837D01*
X167371634Y-96231681D01*
X167650859Y-96156863D01*
X167675339Y-96144120D01*
X167831590Y-96013010D01*
X167845761Y-95996121D01*
X167946359Y-95821880D01*
X167953900Y-95801163D01*
X167960525Y-95763593D01*
X168035798Y-95844032D01*
X168043722Y-95851180D01*
X168235792Y-95996968D01*
X168244808Y-96002679D01*
X168458696Y-96114021D01*
X168468545Y-96118131D01*
X168698134Y-96191844D01*
X168708535Y-96194236D01*
X168947262Y-96228212D01*
X168957917Y-96228817D01*
X169198956Y-96222084D01*
X169209561Y-96220885D01*
X169446019Y-96173636D01*
X169456270Y-96170667D01*
X169681387Y-96084253D01*
X169690991Y-96079600D01*
X169898330Y-95956491D01*
X169907012Y-95950286D01*
X170090645Y-95794004D01*
X170098158Y-95786424D01*
X170252833Y-95601435D01*
X170258962Y-95592698D01*
X170306486Y-95511043D01*
X170404430Y-95659584D01*
X170411038Y-95667965D01*
X170575798Y-95844032D01*
X170583722Y-95851180D01*
X170775792Y-95996968D01*
X170784808Y-96002679D01*
X170998696Y-96114021D01*
X171008545Y-96118131D01*
X171238134Y-96191844D01*
X171248535Y-96194236D01*
X171487262Y-96228212D01*
X171497917Y-96228817D01*
X171738956Y-96222084D01*
X171749561Y-96220885D01*
X171986019Y-96173636D01*
X171996270Y-96170667D01*
X172221387Y-96084253D01*
X172230991Y-96079600D01*
X172438330Y-95956491D01*
X172447012Y-95950286D01*
X172630645Y-95794004D01*
X172638158Y-95786424D01*
X172792833Y-95601435D01*
X172798962Y-95592698D01*
X172846486Y-95511043D01*
X172944430Y-95659584D01*
X172951038Y-95667965D01*
X173115798Y-95844032D01*
X173123722Y-95851180D01*
X173315792Y-95996968D01*
X173324808Y-96002679D01*
X173538696Y-96114021D01*
X173548545Y-96118131D01*
X173778134Y-96191844D01*
X173788535Y-96194236D01*
X174027262Y-96228212D01*
X174037917Y-96228817D01*
X174278956Y-96222084D01*
X174289561Y-96220885D01*
X174526019Y-96173636D01*
X174536270Y-96170667D01*
X174761387Y-96084253D01*
X174770991Y-96079600D01*
X174978330Y-95956491D01*
X174987012Y-95950286D01*
X175170645Y-95794004D01*
X175178158Y-95786424D01*
X175332833Y-95601435D01*
X175338962Y-95592698D01*
X175386486Y-95511043D01*
X175484430Y-95659584D01*
X175491038Y-95667965D01*
X175655798Y-95844032D01*
X175663722Y-95851180D01*
X175855792Y-95996968D01*
X175864808Y-96002679D01*
X176078696Y-96114021D01*
X176088545Y-96118131D01*
X176318134Y-96191844D01*
X176328535Y-96194236D01*
X176567262Y-96228212D01*
X176577917Y-96228817D01*
X176818956Y-96222084D01*
X176829561Y-96220885D01*
X177066019Y-96173636D01*
X177076270Y-96170667D01*
X177301387Y-96084253D01*
X177310991Y-96079600D01*
X177518330Y-95956491D01*
X177527012Y-95950286D01*
X177710645Y-95794004D01*
X177718158Y-95786424D01*
X177872833Y-95601435D01*
X177878962Y-95592698D01*
X177926486Y-95511043D01*
X178024430Y-95659584D01*
X178031038Y-95667965D01*
X178195798Y-95844032D01*
X178203722Y-95851180D01*
X178395792Y-95996968D01*
X178404808Y-96002679D01*
X178618696Y-96114021D01*
X178628545Y-96118131D01*
X178858134Y-96191844D01*
X178868535Y-96194236D01*
X179107262Y-96228212D01*
X179117917Y-96228817D01*
X179358956Y-96222084D01*
X179369561Y-96220885D01*
X179606019Y-96173636D01*
X179616270Y-96170667D01*
X179841387Y-96084253D01*
X179850991Y-96079600D01*
X180058330Y-95956491D01*
X180067012Y-95950286D01*
X180250645Y-95794004D01*
X180258158Y-95786424D01*
X180412833Y-95601435D01*
X180418962Y-95592698D01*
X180466486Y-95511043D01*
X180564430Y-95659584D01*
X180571038Y-95667965D01*
X180735798Y-95844032D01*
X180743722Y-95851180D01*
X180935792Y-95996968D01*
X180944808Y-96002679D01*
X181158696Y-96114021D01*
X181168545Y-96118131D01*
X181398134Y-96191844D01*
X181408535Y-96194236D01*
X181647262Y-96228212D01*
X181657917Y-96228817D01*
X181898956Y-96222084D01*
X181909561Y-96220885D01*
X182146019Y-96173636D01*
X182156270Y-96170667D01*
X182381387Y-96084253D01*
X182390991Y-96079600D01*
X182598330Y-95956491D01*
X182607012Y-95950286D01*
X182790645Y-95794004D01*
X182798158Y-95786424D01*
X182952833Y-95601435D01*
X182958962Y-95592698D01*
X183006486Y-95511043D01*
X183104430Y-95659584D01*
X183111038Y-95667965D01*
X183275798Y-95844032D01*
X183283722Y-95851180D01*
X183475792Y-95996968D01*
X183484808Y-96002679D01*
X183698696Y-96114021D01*
X183708545Y-96118131D01*
X183938134Y-96191844D01*
X183948535Y-96194236D01*
X184187262Y-96228212D01*
X184197917Y-96228817D01*
X184438956Y-96222084D01*
X184449561Y-96220885D01*
X184686019Y-96173636D01*
X184696270Y-96170667D01*
X184921387Y-96084253D01*
X184930991Y-96079600D01*
X185138330Y-95956491D01*
X185147012Y-95950286D01*
X185330645Y-95794004D01*
X185338158Y-95786424D01*
X185492833Y-95601435D01*
X185498962Y-95592698D01*
X185546486Y-95511043D01*
X185644430Y-95659584D01*
X185651038Y-95667965D01*
X185815798Y-95844032D01*
X185823722Y-95851180D01*
X186015792Y-95996968D01*
X186024808Y-96002679D01*
X186238696Y-96114021D01*
X186248545Y-96118131D01*
X186478134Y-96191844D01*
X186488535Y-96194236D01*
X186727262Y-96228212D01*
X186737917Y-96228817D01*
X186978956Y-96222084D01*
X186989561Y-96220885D01*
X187226019Y-96173636D01*
X187236270Y-96170667D01*
X187461387Y-96084253D01*
X187470991Y-96079600D01*
X187678330Y-95956491D01*
X187687012Y-95950286D01*
X187870645Y-95794004D01*
X187878158Y-95786424D01*
X188032833Y-95601435D01*
X188038962Y-95592698D01*
X188086486Y-95511043D01*
X188184430Y-95659584D01*
X188191038Y-95667965D01*
X188355798Y-95844032D01*
X188363722Y-95851180D01*
X188555792Y-95996968D01*
X188564808Y-96002679D01*
X188778696Y-96114021D01*
X188788545Y-96118131D01*
X189018134Y-96191844D01*
X189028535Y-96194236D01*
X189267262Y-96228212D01*
X189277917Y-96228817D01*
X189518956Y-96222084D01*
X189529561Y-96220885D01*
X189766019Y-96173636D01*
X189776270Y-96170667D01*
X190001387Y-96084253D01*
X190010991Y-96079600D01*
X190218330Y-95956491D01*
X190227012Y-95950286D01*
X190410645Y-95794004D01*
X190418158Y-95786424D01*
X190572833Y-95601435D01*
X190578962Y-95592698D01*
X190700256Y-95384294D01*
X190704825Y-95374650D01*
X190789272Y-95148787D01*
X190792151Y-95138511D01*
X190837392Y-94901351D01*
X190838507Y-94890128D01*
X190841077Y-94622341D01*
X190840178Y-94611099D01*
X190799499Y-94373114D01*
X190796817Y-94362784D01*
X190716723Y-94135343D01*
X190712339Y-94125612D01*
X190595067Y-93914916D01*
X190589107Y-93906064D01*
X190438013Y-93718140D01*
X190430647Y-93710417D01*
X190250049Y-93550638D01*
X190241486Y-93544267D01*
X190036549Y-93417202D01*
X190027036Y-93412365D01*
X190017742Y-93408591D01*
X190218330Y-93289491D01*
X190227012Y-93283286D01*
X190410645Y-93127004D01*
X190418158Y-93119424D01*
X190572833Y-92934435D01*
X190578962Y-92925698D01*
X190700256Y-92717294D01*
X190704825Y-92707650D01*
X190789272Y-92481787D01*
X190792151Y-92471511D01*
X190837392Y-92234351D01*
X190838507Y-92223128D01*
X190841077Y-91955341D01*
X190840178Y-91944099D01*
X190799499Y-91706114D01*
X190796817Y-91695784D01*
X190716723Y-91468343D01*
X190712339Y-91458612D01*
X190595067Y-91247916D01*
X190589107Y-91239064D01*
X190438013Y-91051140D01*
X190430647Y-91043417D01*
X190250049Y-90883638D01*
X190241486Y-90877267D01*
X190036549Y-90750202D01*
X190027036Y-90745365D01*
X189803619Y-90654645D01*
X189793427Y-90651480D01*
X189557919Y-90599700D01*
X189547340Y-90598298D01*
X189306475Y-90586939D01*
X189295809Y-90587339D01*
X189056474Y-90616727D01*
X189046030Y-90618918D01*
X188815068Y-90688210D01*
X188805142Y-90692130D01*
X188589155Y-90799346D01*
X188580032Y-90804882D01*
X188385199Y-90946957D01*
X188377138Y-90953952D01*
X188209029Y-91126822D01*
X188202263Y-91135074D01*
X188086229Y-91303903D01*
X188055067Y-91247916D01*
X188049107Y-91239064D01*
X187898013Y-91051140D01*
X187890647Y-91043417D01*
X187710049Y-90883638D01*
X187701486Y-90877267D01*
X187496549Y-90750202D01*
X187487036Y-90745365D01*
X187263619Y-90654645D01*
X187253427Y-90651480D01*
X187017919Y-90599700D01*
X187007340Y-90598298D01*
X186766475Y-90586939D01*
X186755809Y-90587339D01*
X186516474Y-90616727D01*
X186506030Y-90618918D01*
X186275068Y-90688210D01*
X186265142Y-90692130D01*
X186049155Y-90799346D01*
X186040032Y-90804882D01*
X185845199Y-90946957D01*
X185837138Y-90953952D01*
X185669029Y-91126822D01*
X185662263Y-91135074D01*
X185546229Y-91303903D01*
X185515067Y-91247916D01*
X185509107Y-91239064D01*
X185358013Y-91051140D01*
X185350647Y-91043417D01*
X185288000Y-90987992D01*
X185288000Y-89229868D01*
X187832669Y-86685200D01*
X192757842Y-86685200D01*
X192815841Y-86692836D01*
X192832359Y-86692836D01*
X192898546Y-86684122D01*
X193079765Y-86660264D01*
X193095719Y-86655989D01*
X193326266Y-86560493D01*
X193340570Y-86552235D01*
X193538545Y-86400324D01*
X193550224Y-86388645D01*
X193585845Y-86342223D01*
X196366000Y-83562069D01*
X196366000Y-93281638D01*
X196296643Y-93167116D01*
X196291709Y-93160096D01*
X196105429Y-92930060D01*
X196099588Y-92923775D01*
X195883812Y-92721147D01*
X195877172Y-92715713D01*
X195635893Y-92544244D01*
X195628577Y-92539761D01*
X195366259Y-92402625D01*
X195358403Y-92399176D01*
X195079900Y-92298909D01*
X195071648Y-92296558D01*
X194782115Y-92235016D01*
X194773620Y-92233807D01*
X194478413Y-92212128D01*
X194469833Y-92212083D01*
X194174415Y-92230669D01*
X194165908Y-92231789D01*
X193875746Y-92290297D01*
X193867470Y-92292561D01*
X193587933Y-92389905D01*
X193580041Y-92393272D01*
X193316301Y-92527654D01*
X193308939Y-92532060D01*
X193065876Y-92700992D01*
X193059181Y-92706357D01*
X192841294Y-92906713D01*
X192835388Y-92912937D01*
X192646709Y-93141011D01*
X192641702Y-93147979D01*
X192485723Y-93399549D01*
X192481708Y-93407131D01*
X192361312Y-93677543D01*
X192358364Y-93685601D01*
X192275782Y-93969850D01*
X192273954Y-93978233D01*
X192230713Y-94271059D01*
X192230040Y-94279613D01*
X192226941Y-94575598D01*
X192227435Y-94584164D01*
X192264533Y-94877832D01*
X192266185Y-94886252D01*
X192342797Y-95172168D01*
X192345576Y-95180285D01*
X192460281Y-95453159D01*
X192464136Y-95460824D01*
X192614813Y-95715606D01*
X192619673Y-95722677D01*
X192803534Y-95954652D01*
X192809309Y-95960998D01*
X193022951Y-96165873D01*
X193029533Y-96171377D01*
X193269005Y-96345363D01*
X193276273Y-96349922D01*
X193306258Y-96366000D01*
X143619120Y-96366000D01*
X143840521Y-96215536D01*
X143847273Y-96210242D01*
X144067246Y-96012178D01*
X144073216Y-96006016D01*
X144264273Y-95779930D01*
X144269353Y-95773015D01*
X144427959Y-95523093D01*
X144432053Y-95515553D01*
X144555273Y-95246417D01*
X144558305Y-95238391D01*
X144643859Y-94955022D01*
X144645775Y-94946659D01*
X144646226Y-94943808D01*
X165005163Y-94943808D01*
X165005163Y-95600258D01*
X165007319Y-95616634D01*
X165082137Y-95895859D01*
X165094880Y-95920339D01*
X165225990Y-96076590D01*
X165242879Y-96090761D01*
X165417120Y-96191359D01*
X165437837Y-96198900D01*
X165630538Y-96232878D01*
X165641499Y-96233837D01*
X166295191Y-96233837D01*
X166369000Y-96160028D01*
X166369001Y-94943809D01*
X166295192Y-94870000D01*
X165078972Y-94869999D01*
X165005163Y-94943808D01*
X144646226Y-94943808D01*
X144692131Y-94653974D01*
X144692905Y-94644766D01*
X144696473Y-94303988D01*
X144695893Y-94294766D01*
X144655676Y-94001176D01*
X144653936Y-93992774D01*
X144574336Y-93707675D01*
X144571472Y-93699588D01*
X144453915Y-93427930D01*
X144449980Y-93420306D01*
X144296643Y-93167116D01*
X144291709Y-93160096D01*
X144105429Y-92930060D01*
X144099588Y-92923775D01*
X143883812Y-92721147D01*
X143877172Y-92715713D01*
X143635893Y-92544244D01*
X143628577Y-92539761D01*
X143366259Y-92402625D01*
X143358403Y-92399176D01*
X143079900Y-92298909D01*
X143071648Y-92296558D01*
X142782115Y-92235016D01*
X142773620Y-92233807D01*
X142478413Y-92212128D01*
X142469833Y-92212083D01*
X142174415Y-92230669D01*
X142165908Y-92231789D01*
X141875746Y-92290297D01*
X141867470Y-92292561D01*
X141587933Y-92389905D01*
X141580041Y-92393272D01*
X141316301Y-92527654D01*
X141308939Y-92532060D01*
X141065876Y-92700992D01*
X141059181Y-92706357D01*
X140841294Y-92906713D01*
X140835388Y-92912937D01*
X140646709Y-93141011D01*
X140641702Y-93147979D01*
X140634000Y-93160401D01*
X140634000Y-64341659D01*
X149387051Y-64341659D01*
X149407396Y-64535228D01*
X149410280Y-64548568D01*
X149471717Y-64733253D01*
X149477398Y-64745662D01*
X149577060Y-64912846D01*
X149585273Y-64923745D01*
X149718510Y-65065629D01*
X149728873Y-65074511D01*
X149889470Y-65184474D01*
X149901498Y-65190923D01*
X150081960Y-65263834D01*
X150095092Y-65267551D01*
X150287003Y-65300010D01*
X150300626Y-65300819D01*
X150495029Y-65291311D01*
X150508509Y-65289176D01*
X150696335Y-65238145D01*
X150709043Y-65233165D01*
X150728012Y-65223248D01*
X150796100Y-65262559D01*
X150816817Y-65270100D01*
X151009518Y-65304078D01*
X151020479Y-65305037D01*
X151684238Y-65305037D01*
X151700614Y-65302881D01*
X151979839Y-65228063D01*
X152004319Y-65215320D01*
X152160570Y-65084210D01*
X152174741Y-65067321D01*
X152275339Y-64893080D01*
X152282880Y-64872363D01*
X152316858Y-64679662D01*
X152317817Y-64668701D01*
X152317817Y-64004942D01*
X152315661Y-63988566D01*
X152240843Y-63709342D01*
X152238413Y-63704674D01*
X152260154Y-63658471D01*
X152264596Y-63645568D01*
X152283815Y-63560984D01*
X152208152Y-63466200D01*
X151996548Y-63466200D01*
X151905860Y-63413841D01*
X151885143Y-63406300D01*
X151692442Y-63372322D01*
X151681481Y-63371363D01*
X151017722Y-63371363D01*
X151001346Y-63373519D01*
X150722122Y-63448337D01*
X150721117Y-63448860D01*
X150715281Y-63445757D01*
X150702610Y-63440689D01*
X150515145Y-63388347D01*
X150501680Y-63386117D01*
X150307347Y-63375253D01*
X150293718Y-63375967D01*
X150101587Y-63407086D01*
X150088429Y-63410710D01*
X149948280Y-63466199D01*
X149493106Y-63466199D01*
X149417672Y-63570790D01*
X149471717Y-63733253D01*
X149477398Y-63745662D01*
X149532590Y-63838248D01*
X149480264Y-63924650D01*
X149474496Y-63937019D01*
X149411772Y-64121269D01*
X149408795Y-64134588D01*
X149387099Y-64328011D01*
X149387051Y-64341659D01*
X140634000Y-64341659D01*
X140634000Y-58596408D01*
X186569763Y-58596408D01*
X186569763Y-59252858D01*
X186571919Y-59269234D01*
X186646737Y-59548459D01*
X186659480Y-59572939D01*
X186790590Y-59729190D01*
X186807479Y-59743361D01*
X186981720Y-59843959D01*
X187002437Y-59851500D01*
X187195138Y-59885478D01*
X187206099Y-59886437D01*
X187859791Y-59886437D01*
X187933600Y-59812628D01*
X188189599Y-59812628D01*
X188263408Y-59886437D01*
X188919858Y-59886437D01*
X188936234Y-59884281D01*
X189215459Y-59809463D01*
X189239939Y-59796720D01*
X189396190Y-59665610D01*
X189410361Y-59648721D01*
X189510959Y-59474480D01*
X189518500Y-59453763D01*
X189552478Y-59261062D01*
X189553437Y-59250101D01*
X189553437Y-58596409D01*
X189479628Y-58522600D01*
X188263409Y-58522599D01*
X188189600Y-58596408D01*
X188189599Y-59812628D01*
X187933600Y-59812628D01*
X187933601Y-58596409D01*
X187859792Y-58522600D01*
X186643572Y-58522599D01*
X186569763Y-58596408D01*
X140634000Y-58596408D01*
X140634000Y-53740753D01*
X140803534Y-53954652D01*
X140809309Y-53960998D01*
X141022951Y-54165873D01*
X141029533Y-54171377D01*
X141269005Y-54345363D01*
X141276273Y-54349922D01*
X141537140Y-54489798D01*
X141544960Y-54493329D01*
X141822398Y-54596507D01*
X141830624Y-54598944D01*
X142119498Y-54663514D01*
X142127979Y-54664812D01*
X142422943Y-54689581D01*
X142431522Y-54689716D01*
X142727118Y-54674225D01*
X142735636Y-54673194D01*
X143026396Y-54617728D01*
X143034695Y-54615551D01*
X143315236Y-54521138D01*
X143323162Y-54517855D01*
X143588295Y-54386242D01*
X143595703Y-54381914D01*
X143840521Y-54215536D01*
X143847273Y-54210242D01*
X144067246Y-54012178D01*
X144073216Y-54006016D01*
X144264273Y-53779930D01*
X144269353Y-53773015D01*
X144427959Y-53523093D01*
X144432053Y-53515553D01*
X144555273Y-53246417D01*
X144558305Y-53238391D01*
X144643859Y-52955022D01*
X144645775Y-52946659D01*
X144692131Y-52653974D01*
X144692905Y-52644766D01*
X144696473Y-52303988D01*
X144695893Y-52294766D01*
X144655676Y-52001176D01*
X144653936Y-51992774D01*
X144574336Y-51707675D01*
X144571472Y-51699588D01*
X144453915Y-51427930D01*
X144449980Y-51420306D01*
X144296643Y-51167116D01*
X144291709Y-51160096D01*
X144105429Y-50930060D01*
X144099588Y-50923775D01*
X143883812Y-50721147D01*
X143877172Y-50715713D01*
X143762191Y-50634000D01*
X193162266Y-50634000D01*
X193065876Y-50700992D01*
G37*
D15*
X193065876Y-50700992D02*
X193059181Y-50706357D01*
X192841294Y-50906713D01*
X192835388Y-50912937D01*
X192646709Y-51141011D01*
X192641702Y-51147979D01*
X192485723Y-51399549D01*
X192481708Y-51407131D01*
X192361312Y-51677543D01*
X192358364Y-51685601D01*
X192275782Y-51969850D01*
X192273954Y-51978233D01*
X192230713Y-52271059D01*
X192230040Y-52279613D01*
X192226941Y-52575598D01*
X192227435Y-52584164D01*
X192264533Y-52877832D01*
X192266185Y-52886252D01*
X192342797Y-53172168D01*
X192345576Y-53180285D01*
X192440594Y-53406326D01*
X191680845Y-52646577D01*
X191645224Y-52600155D01*
X191633545Y-52588476D01*
X191435570Y-52436565D01*
X191421266Y-52428307D01*
X191190719Y-52332811D01*
X191174765Y-52328536D01*
X190993546Y-52304678D01*
X190927359Y-52295964D01*
X190910841Y-52295964D01*
X190852842Y-52303600D01*
X189152953Y-52303600D01*
X189142613Y-52290739D01*
X189135247Y-52283017D01*
X188954649Y-52123238D01*
X188946086Y-52116867D01*
X188741149Y-51989802D01*
X188731636Y-51984965D01*
X188508219Y-51894245D01*
X188498027Y-51891080D01*
X188262519Y-51839300D01*
X188251940Y-51837898D01*
X188011075Y-51826539D01*
X188000409Y-51826939D01*
X187761074Y-51856327D01*
X187750630Y-51858518D01*
X187519668Y-51927810D01*
X187509742Y-51931730D01*
X187293755Y-52038946D01*
X187284632Y-52044482D01*
X187089799Y-52186557D01*
X187081738Y-52193552D01*
X186913629Y-52366422D01*
X186906863Y-52374674D01*
X186770283Y-52573398D01*
X186765003Y-52582673D01*
X186663860Y-52801568D01*
X186660218Y-52811600D01*
X186597402Y-53044407D01*
X186595503Y-53054909D01*
X186572811Y-53294972D01*
X186572709Y-53305643D01*
X186590788Y-53546097D01*
X186592485Y-53556634D01*
X186650821Y-53790605D01*
X186654269Y-53800704D01*
X186751191Y-54021500D01*
X186756292Y-54030875D01*
X186889030Y-54232184D01*
X186895638Y-54240565D01*
X187060398Y-54416632D01*
X187068322Y-54423780D01*
X187260392Y-54569568D01*
X187269408Y-54575279D01*
X187285766Y-54583794D01*
X187284632Y-54584482D01*
X187089799Y-54726557D01*
X187081738Y-54733552D01*
X186913629Y-54906422D01*
X186906863Y-54914674D01*
X186770283Y-55113398D01*
X186765003Y-55122673D01*
X186663860Y-55341568D01*
X186660218Y-55351600D01*
X186597402Y-55584407D01*
X186595503Y-55594909D01*
X186572811Y-55834972D01*
X186572709Y-55845643D01*
X186590788Y-56086097D01*
X186592485Y-56096634D01*
X186650821Y-56330605D01*
X186654269Y-56340704D01*
X186751191Y-56561500D01*
X186756292Y-56570875D01*
X186889030Y-56772184D01*
X186895638Y-56780565D01*
X187047081Y-56942401D01*
X186907742Y-56979737D01*
X186883262Y-56992480D01*
X186727010Y-57123590D01*
X186712839Y-57140479D01*
X186612241Y-57314720D01*
X186604700Y-57335437D01*
X186570722Y-57528138D01*
X186569763Y-57539099D01*
X186569763Y-58192791D01*
X186643572Y-58266600D01*
X187859792Y-58266601D01*
X187859793Y-58266600D01*
X189479628Y-58266601D01*
X189553437Y-58192792D01*
X189553437Y-57536342D01*
X189551281Y-57519966D01*
X189476463Y-57240742D01*
X189463720Y-57216262D01*
X189332610Y-57060010D01*
X189315721Y-57045839D01*
X189141480Y-56945241D01*
X189120763Y-56937700D01*
X189085924Y-56931557D01*
X189115245Y-56906603D01*
X189122758Y-56899024D01*
X189150705Y-56865600D01*
X190106632Y-56865600D01*
X192892600Y-59651569D01*
X192892601Y-78562530D01*
X188836632Y-82618500D01*
X185778350Y-82618500D01*
X185720358Y-82610865D01*
X185703840Y-82610865D01*
X185641751Y-82619039D01*
X185641742Y-82619040D01*
X185456435Y-82643436D01*
X185440481Y-82647711D01*
X185306738Y-82703109D01*
X185209933Y-82743207D01*
X185195629Y-82751465D01*
X185074626Y-82844315D01*
X184997655Y-82903376D01*
X184985976Y-82915055D01*
X184950358Y-82961473D01*
X181394432Y-86517400D01*
X175237359Y-86517400D01*
X175179359Y-86509764D01*
X175162841Y-86509764D01*
X175096653Y-86518478D01*
X174915435Y-86542336D01*
X174899481Y-86546611D01*
X174668934Y-86642107D01*
X174654630Y-86650365D01*
X174456655Y-86802276D01*
X174444975Y-86813956D01*
X174409356Y-86860376D01*
X173448977Y-87820755D01*
X173402555Y-87856376D01*
X173390876Y-87868056D01*
X173319289Y-87961351D01*
X173231329Y-88075982D01*
X173225968Y-88091776D01*
X173135211Y-88310882D01*
X173130936Y-88326836D01*
X173107078Y-88508052D01*
X173098364Y-88574242D01*
X173098364Y-88590759D01*
X173106000Y-88648758D01*
X173106001Y-90985971D01*
X172969029Y-91126822D01*
X172962263Y-91135074D01*
X172846229Y-91303903D01*
X172815067Y-91247916D01*
X172809107Y-91239064D01*
X172658013Y-91051140D01*
X172650647Y-91043417D01*
X172470049Y-90883638D01*
X172461486Y-90877267D01*
X172256549Y-90750202D01*
X172247036Y-90745365D01*
X172023619Y-90654645D01*
X172013427Y-90651480D01*
X171777919Y-90599700D01*
X171767340Y-90598298D01*
X171526475Y-90586939D01*
X171515809Y-90587339D01*
X171276474Y-90616727D01*
X171266030Y-90618918D01*
X171035068Y-90688210D01*
X171025142Y-90692130D01*
X170809155Y-90799346D01*
X170800032Y-90804882D01*
X170605199Y-90946957D01*
X170597138Y-90953952D01*
X170429029Y-91126822D01*
X170422263Y-91135074D01*
X170306229Y-91303903D01*
X170275067Y-91247916D01*
X170269107Y-91239064D01*
X170118013Y-91051140D01*
X170110647Y-91043417D01*
X169930049Y-90883638D01*
X169921486Y-90877267D01*
X169716549Y-90750202D01*
X169707036Y-90745365D01*
X169483619Y-90654645D01*
X169473427Y-90651480D01*
X169237919Y-90599700D01*
X169227340Y-90598298D01*
X168986475Y-90586939D01*
X168975809Y-90587339D01*
X168736474Y-90616727D01*
X168726030Y-90618918D01*
X168495068Y-90688210D01*
X168485142Y-90692130D01*
X168269155Y-90799346D01*
X168260032Y-90804882D01*
X168065199Y-90946957D01*
X168057138Y-90953952D01*
X167950137Y-91063983D01*
X167911863Y-90921142D01*
X167899120Y-90896662D01*
X167768010Y-90740410D01*
X167751121Y-90726239D01*
X167576880Y-90625641D01*
X167556163Y-90618101D01*
X167508000Y-90609608D01*
X167508000Y-88216958D01*
X167515636Y-88158959D01*
X167515636Y-88142442D01*
X167506922Y-88076253D01*
X167483064Y-87895035D01*
X167478789Y-87879081D01*
X167383293Y-87648534D01*
X167375035Y-87634230D01*
X167223124Y-87436255D01*
X167211444Y-87424576D01*
X167165031Y-87388962D01*
X156255800Y-76479732D01*
X156255800Y-64666079D01*
X156263436Y-64608078D01*
X156263436Y-64591561D01*
X156230864Y-64344155D01*
X156226589Y-64328201D01*
X156131093Y-64097654D01*
X156122835Y-64083350D01*
X156011565Y-63938339D01*
X155970924Y-63885375D01*
X155959245Y-63873696D01*
X155912827Y-63838078D01*
X153744925Y-61670177D01*
X153709304Y-61623755D01*
X153697625Y-61612076D01*
X153499650Y-61460165D01*
X153485346Y-61451907D01*
X153254799Y-61356411D01*
X153238845Y-61352136D01*
X153216544Y-61349200D01*
X157016012Y-61349200D01*
X160939400Y-65272589D01*
X160939400Y-65474000D01*
X160939401Y-68136514D01*
X160939400Y-68136528D01*
X160939401Y-69618635D01*
X160931764Y-69676641D01*
X160931764Y-69693159D01*
X160957305Y-69887153D01*
X160964337Y-69940566D01*
X160968612Y-69956520D01*
X160987119Y-70001198D01*
X161064106Y-70187066D01*
X161072365Y-70201370D01*
X161183558Y-70346278D01*
X161224277Y-70399345D01*
X161235956Y-70411024D01*
X161282374Y-70446642D01*
X162966658Y-72130927D01*
X163002276Y-72177345D01*
X163013955Y-72189024D01*
X163066919Y-72229665D01*
X163211930Y-72340935D01*
X163226234Y-72349193D01*
X163456781Y-72444689D01*
X163472735Y-72448964D01*
X163720141Y-72481536D01*
X163736658Y-72481536D01*
X163794659Y-72473900D01*
X175943042Y-72473900D01*
X176001041Y-72481536D01*
X176017559Y-72481536D01*
X176083746Y-72472822D01*
X176264965Y-72448964D01*
X176280919Y-72444689D01*
X176511466Y-72349193D01*
X176525770Y-72340935D01*
X176723745Y-72189024D01*
X176735424Y-72177345D01*
X176771042Y-72130927D01*
X177325031Y-71576939D01*
X177371445Y-71541324D01*
X177383124Y-71529645D01*
X177430596Y-71467777D01*
X177535035Y-71331671D01*
X177543293Y-71317367D01*
X177572573Y-71246682D01*
X177638789Y-71086820D01*
X177643064Y-71070865D01*
X177667460Y-70885558D01*
X177667461Y-70885549D01*
X177675635Y-70823460D01*
X177675635Y-70806942D01*
X177668000Y-70748950D01*
X177668000Y-70176297D01*
X177710645Y-70140003D01*
X177718158Y-70132424D01*
X177872833Y-69947435D01*
X177878962Y-69938698D01*
X177926486Y-69857043D01*
X178024430Y-70005584D01*
X178031038Y-70013965D01*
X178195798Y-70190032D01*
X178203722Y-70197180D01*
X178395792Y-70342968D01*
X178404808Y-70348679D01*
X178618696Y-70460021D01*
X178628545Y-70464131D01*
X178858134Y-70537844D01*
X178868535Y-70540236D01*
X179107262Y-70574212D01*
X179117917Y-70574817D01*
X179358956Y-70568084D01*
X179369561Y-70566885D01*
X179606019Y-70519636D01*
X179616270Y-70516667D01*
X179841387Y-70430253D01*
X179850991Y-70425600D01*
X180058330Y-70302491D01*
X180067012Y-70296286D01*
X180250645Y-70140004D01*
X180258158Y-70132424D01*
X180412833Y-69947435D01*
X180418962Y-69938698D01*
X180466486Y-69857043D01*
X180564430Y-70005584D01*
X180571038Y-70013965D01*
X180735798Y-70190032D01*
X180743722Y-70197180D01*
X180935792Y-70342968D01*
X180944808Y-70348679D01*
X181158696Y-70460021D01*
X181168545Y-70464131D01*
X181398134Y-70537845D01*
X181408535Y-70540236D01*
X181522162Y-70556407D01*
X181609000Y-70481052D01*
X181609001Y-68960000D01*
X181865000Y-68960001D01*
X181864999Y-70481748D01*
X181957217Y-70557362D01*
X182146019Y-70519636D01*
X182156270Y-70516667D01*
X182381387Y-70430253D01*
X182390991Y-70425600D01*
X182598330Y-70302491D01*
X182607012Y-70296286D01*
X182790645Y-70140004D01*
X182798158Y-70132424D01*
X182952833Y-69947435D01*
X182958962Y-69938698D01*
X183006486Y-69857043D01*
X183104430Y-70005584D01*
X183111038Y-70013965D01*
X183275798Y-70190032D01*
X183283722Y-70197180D01*
X183475792Y-70342968D01*
X183484808Y-70348679D01*
X183698696Y-70460021D01*
X183708545Y-70464131D01*
X183938134Y-70537844D01*
X183948535Y-70540236D01*
X184187262Y-70574212D01*
X184197917Y-70574817D01*
X184438956Y-70568084D01*
X184449561Y-70566885D01*
X184686019Y-70519636D01*
X184696270Y-70516667D01*
X184921387Y-70430253D01*
X184930991Y-70425600D01*
X185138330Y-70302491D01*
X185147012Y-70296286D01*
X185330645Y-70140004D01*
X185338158Y-70132424D01*
X185492833Y-69947435D01*
X185498962Y-69938698D01*
X185546486Y-69857043D01*
X185644430Y-70005584D01*
X185651038Y-70013965D01*
X185815798Y-70190032D01*
X185823722Y-70197180D01*
X186015792Y-70342968D01*
X186024808Y-70348679D01*
X186238696Y-70460021D01*
X186248545Y-70464131D01*
X186478134Y-70537844D01*
X186488535Y-70540236D01*
X186727262Y-70574212D01*
X186737917Y-70574817D01*
X186978956Y-70568084D01*
X186989561Y-70566885D01*
X187226019Y-70519636D01*
X187236270Y-70516667D01*
X187461387Y-70430253D01*
X187470991Y-70425600D01*
X187678330Y-70302491D01*
X187687012Y-70296286D01*
X187870645Y-70140004D01*
X187878158Y-70132424D01*
X188032833Y-69947435D01*
X188038962Y-69938698D01*
X188086486Y-69857043D01*
X188184430Y-70005584D01*
X188191038Y-70013965D01*
X188355798Y-70190032D01*
X188363722Y-70197180D01*
X188555792Y-70342968D01*
X188564808Y-70348679D01*
X188778696Y-70460021D01*
X188788545Y-70464131D01*
X189018134Y-70537844D01*
X189028535Y-70540236D01*
X189267262Y-70574212D01*
X189277917Y-70574817D01*
X189518956Y-70568084D01*
X189529561Y-70566885D01*
X189766019Y-70519636D01*
X189776270Y-70516667D01*
X190001387Y-70430253D01*
X190010991Y-70425600D01*
X190218330Y-70302491D01*
X190227012Y-70296286D01*
X190410645Y-70140004D01*
X190418158Y-70132424D01*
X190572833Y-69947435D01*
X190578962Y-69938698D01*
X190700256Y-69730294D01*
X190704825Y-69720650D01*
X190789272Y-69494787D01*
X190792151Y-69484511D01*
X190837392Y-69247351D01*
X190838507Y-69236128D01*
X190841077Y-68968341D01*
X190840178Y-68957099D01*
X190799499Y-68719114D01*
X190796817Y-68708784D01*
X190716723Y-68481343D01*
X190712339Y-68471612D01*
X190595067Y-68260916D01*
X190589107Y-68252064D01*
X190438013Y-68064140D01*
X190430647Y-68056417D01*
X190250049Y-67896638D01*
X190241486Y-67890267D01*
X190036549Y-67763202D01*
X190027036Y-67758365D01*
X190017742Y-67754591D01*
X190218330Y-67635491D01*
X190227012Y-67629286D01*
X190410645Y-67473004D01*
X190418158Y-67465424D01*
X190572833Y-67280435D01*
X190578962Y-67271698D01*
X190700256Y-67063294D01*
X190704825Y-67053650D01*
X190789272Y-66827787D01*
X190792151Y-66817511D01*
X190837392Y-66580351D01*
X190838507Y-66569128D01*
X190841077Y-66301341D01*
X190840178Y-66290099D01*
X190799499Y-66052114D01*
X190796817Y-66041784D01*
X190716723Y-65814343D01*
X190712339Y-65804612D01*
X190595067Y-65593916D01*
X190589107Y-65585064D01*
X190438013Y-65397140D01*
X190430647Y-65389417D01*
X190250049Y-65229638D01*
X190241486Y-65223267D01*
X190036549Y-65096202D01*
X190027036Y-65091365D01*
X189803619Y-65000645D01*
X189793427Y-64997480D01*
X189557919Y-64945700D01*
X189547340Y-64944298D01*
X189306475Y-64932939D01*
X189295809Y-64933339D01*
X189056474Y-64962727D01*
X189046030Y-64964918D01*
X188815068Y-65034210D01*
X188805142Y-65038130D01*
X188589155Y-65145346D01*
X188580032Y-65150882D01*
X188385199Y-65292957D01*
X188377138Y-65299952D01*
X188209029Y-65472822D01*
X188202263Y-65481074D01*
X188086229Y-65649903D01*
X188055067Y-65593916D01*
X188049107Y-65585064D01*
X187898013Y-65397140D01*
X187890647Y-65389417D01*
X187710049Y-65229638D01*
X187701486Y-65223267D01*
X187496549Y-65096202D01*
X187487036Y-65091365D01*
X187263619Y-65000645D01*
X187253427Y-64997480D01*
X187017919Y-64945700D01*
X187007340Y-64944298D01*
X186766475Y-64932939D01*
X186755809Y-64933339D01*
X186516474Y-64962727D01*
X186506030Y-64964918D01*
X186275068Y-65034210D01*
X186265142Y-65038130D01*
X186049155Y-65145346D01*
X186040032Y-65150882D01*
X185845199Y-65292957D01*
X185837138Y-65299952D01*
X185669029Y-65472822D01*
X185662263Y-65481074D01*
X185546229Y-65649903D01*
X185515067Y-65593916D01*
X185509107Y-65585064D01*
X185358013Y-65397140D01*
X185350647Y-65389417D01*
X185170049Y-65229638D01*
X185161486Y-65223267D01*
X184956549Y-65096202D01*
X184947036Y-65091365D01*
X184723619Y-65000645D01*
X184713427Y-64997480D01*
X184477919Y-64945700D01*
X184467340Y-64944298D01*
X184226475Y-64932939D01*
X184215809Y-64933339D01*
X183976474Y-64962727D01*
X183966030Y-64964918D01*
X183735068Y-65034210D01*
X183725142Y-65038130D01*
X183509155Y-65145346D01*
X183500032Y-65150882D01*
X183305199Y-65292957D01*
X183297138Y-65299952D01*
X183129029Y-65472822D01*
X183122263Y-65481074D01*
X183006229Y-65649903D01*
X182975067Y-65593916D01*
X182969107Y-65585064D01*
X182818013Y-65397140D01*
X182810647Y-65389417D01*
X182630049Y-65229638D01*
X182621486Y-65223267D01*
X182416549Y-65096202D01*
X182407036Y-65091365D01*
X182183619Y-65000645D01*
X182173427Y-64997480D01*
X181937919Y-64945700D01*
X181927340Y-64944298D01*
X181686475Y-64932939D01*
X181675809Y-64933339D01*
X181436474Y-64962727D01*
X181426030Y-64964918D01*
X181195068Y-65034210D01*
X181185142Y-65038130D01*
X180969155Y-65145346D01*
X180960032Y-65150882D01*
X180765199Y-65292957D01*
X180757138Y-65299952D01*
X180589029Y-65472822D01*
X180582263Y-65481074D01*
X180466229Y-65649903D01*
X180435067Y-65593916D01*
X180429107Y-65585064D01*
X180278013Y-65397140D01*
X180270647Y-65389417D01*
X180090049Y-65229638D01*
X180081486Y-65223267D01*
X179876549Y-65096202D01*
X179867036Y-65091365D01*
X179643619Y-65000645D01*
X179633427Y-64997480D01*
X179397919Y-64945700D01*
X179387340Y-64944298D01*
X179146475Y-64932939D01*
X179135809Y-64933339D01*
X178896474Y-64962727D01*
X178886030Y-64964918D01*
X178655068Y-65034210D01*
X178645142Y-65038130D01*
X178429155Y-65145346D01*
X178420032Y-65150882D01*
X178225199Y-65292957D01*
X178217138Y-65299952D01*
X178049029Y-65472822D01*
X178042263Y-65481074D01*
X177926229Y-65649903D01*
X177895067Y-65593916D01*
X177889107Y-65585064D01*
X177738013Y-65397140D01*
X177730647Y-65389417D01*
X177550049Y-65229638D01*
X177541486Y-65223267D01*
X177336549Y-65096202D01*
X177327036Y-65091365D01*
X177103619Y-65000645D01*
X177093427Y-64997480D01*
X176857919Y-64945700D01*
X176847340Y-64944298D01*
X176606475Y-64932939D01*
X176595809Y-64933339D01*
X176356474Y-64962727D01*
X176346030Y-64964918D01*
X176115068Y-65034210D01*
X176105142Y-65038130D01*
X175889155Y-65145346D01*
X175880032Y-65150882D01*
X175685199Y-65292957D01*
X175677138Y-65299952D01*
X175509029Y-65472822D01*
X175502263Y-65481074D01*
X175386229Y-65649903D01*
X175355067Y-65593916D01*
X175349107Y-65585064D01*
X175198013Y-65397140D01*
X175190647Y-65389417D01*
X175010049Y-65229638D01*
X175001486Y-65223267D01*
X174796549Y-65096202D01*
X174787036Y-65091365D01*
X174563619Y-65000645D01*
X174553427Y-64997480D01*
X174317919Y-64945700D01*
X174307340Y-64944298D01*
X174066475Y-64932939D01*
X174055809Y-64933339D01*
X173816474Y-64962727D01*
X173806030Y-64964918D01*
X173575068Y-65034210D01*
X173565142Y-65038130D01*
X173349155Y-65145346D01*
X173340032Y-65150882D01*
X173145199Y-65292957D01*
X173137138Y-65299952D01*
X172969029Y-65472822D01*
X172962263Y-65481074D01*
X172846229Y-65649903D01*
X172815067Y-65593916D01*
X172809107Y-65585064D01*
X172658013Y-65397140D01*
X172650647Y-65389417D01*
X172470049Y-65229638D01*
X172461486Y-65223267D01*
X172256549Y-65096202D01*
X172247036Y-65091365D01*
X172023619Y-65000645D01*
X172013427Y-64997480D01*
X171777919Y-64945700D01*
X171767340Y-64944298D01*
X171526475Y-64932939D01*
X171515809Y-64933339D01*
X171276474Y-64962727D01*
X171266030Y-64964918D01*
X171035068Y-65034210D01*
X171025142Y-65038130D01*
X170809155Y-65145346D01*
X170800032Y-65150882D01*
X170605199Y-65292957D01*
X170597138Y-65299952D01*
X170429029Y-65472822D01*
X170422263Y-65481074D01*
X170306229Y-65649903D01*
X170275067Y-65593916D01*
X170269107Y-65585064D01*
X170118013Y-65397140D01*
X170110647Y-65389417D01*
X169930049Y-65229638D01*
X169921486Y-65223267D01*
X169716549Y-65096202D01*
X169707036Y-65091365D01*
X169483619Y-65000645D01*
X169473427Y-64997480D01*
X169237919Y-64945700D01*
X169227340Y-64944298D01*
X168986475Y-64932939D01*
X168975809Y-64933339D01*
X168736474Y-64962727D01*
X168726030Y-64964918D01*
X168495068Y-65034210D01*
X168485142Y-65038130D01*
X168269155Y-65145346D01*
X168260032Y-65150882D01*
X168065199Y-65292957D01*
X168057138Y-65299952D01*
X167950137Y-65409983D01*
X167911863Y-65267142D01*
X167899120Y-65242662D01*
X167768010Y-65086410D01*
X167751121Y-65072239D01*
X167576880Y-64971641D01*
X167556163Y-64964100D01*
X167363462Y-64930122D01*
X167352501Y-64929163D01*
X166698809Y-64929163D01*
X166625000Y-65002972D01*
X166624999Y-66219192D01*
X166625000Y-66219193D01*
X166624999Y-66549000D01*
X165078972Y-66548999D01*
X165005163Y-66622808D01*
X165005163Y-67279258D01*
X165007319Y-67295634D01*
X165082137Y-67574859D01*
X165094880Y-67599339D01*
X165225990Y-67755590D01*
X165230787Y-67759615D01*
X165162410Y-67816990D01*
X165148239Y-67833879D01*
X165047641Y-68008120D01*
X165040100Y-68028837D01*
X165006122Y-68221538D01*
X165005163Y-68232499D01*
X165005163Y-69946258D01*
X165007319Y-69962634D01*
X165082137Y-70241859D01*
X165094880Y-70266339D01*
X165225990Y-70422590D01*
X165242879Y-70436761D01*
X165269101Y-70451900D01*
X164147169Y-70451900D01*
X162961400Y-69266132D01*
X162961400Y-65565499D01*
X165005163Y-65565499D01*
X165005163Y-66219191D01*
X165078972Y-66293000D01*
X166295191Y-66293001D01*
X166369000Y-66219192D01*
X166369001Y-65002972D01*
X166295192Y-64929163D01*
X165638742Y-64929163D01*
X165622366Y-64931319D01*
X165343142Y-65006137D01*
X165318662Y-65018880D01*
X165162410Y-65149990D01*
X165148239Y-65166879D01*
X165047641Y-65341120D01*
X165040100Y-65361837D01*
X165006122Y-65554538D01*
X165005163Y-65565499D01*
X162961400Y-65565499D01*
X162961400Y-64920077D01*
X162969036Y-64862078D01*
X162969036Y-64845560D01*
X162960322Y-64779372D01*
X162936464Y-64598155D01*
X162932189Y-64582201D01*
X162851040Y-64386289D01*
X162836694Y-64351654D01*
X162828435Y-64337349D01*
X162717164Y-64192339D01*
X162676524Y-64139375D01*
X162664844Y-64127696D01*
X162618431Y-64092082D01*
X158196525Y-59670177D01*
X158160904Y-59623755D01*
X158149225Y-59612076D01*
X157951250Y-59460165D01*
X157936946Y-59451907D01*
X157706399Y-59356411D01*
X157690445Y-59352136D01*
X157509226Y-59328278D01*
X157443039Y-59319564D01*
X157426521Y-59319564D01*
X157368522Y-59327200D01*
X151288854Y-59327200D01*
X151280622Y-59327740D01*
X151095315Y-59352136D01*
X151079361Y-59356411D01*
X150848814Y-59451907D01*
X150834510Y-59460165D01*
X150796800Y-59489101D01*
X150715281Y-59445757D01*
X150702610Y-59440689D01*
X150515145Y-59388347D01*
X150501680Y-59386117D01*
X150307347Y-59375253D01*
X150293718Y-59375967D01*
X150101587Y-59407086D01*
X150088429Y-59410710D01*
X149907462Y-59482360D01*
X149895389Y-59488725D01*
X149734029Y-59597564D01*
X149723604Y-59606373D01*
X149589379Y-59747323D01*
X149581090Y-59758165D01*
X149480264Y-59924650D01*
X149474496Y-59937019D01*
X149411772Y-60121269D01*
X149408795Y-60134588D01*
X149387099Y-60328011D01*
X149387051Y-60341659D01*
X149407396Y-60535228D01*
X149410280Y-60548568D01*
X149471717Y-60733253D01*
X149477398Y-60745662D01*
X149532590Y-60838248D01*
X149480264Y-60924650D01*
X149474496Y-60937019D01*
X149411772Y-61121269D01*
X149408795Y-61134588D01*
X149387099Y-61328011D01*
X149387051Y-61341659D01*
X149407396Y-61535228D01*
X149410280Y-61548568D01*
X149471717Y-61733253D01*
X149477398Y-61745662D01*
X149532590Y-61838248D01*
X149480264Y-61924650D01*
X149474496Y-61937019D01*
X149411772Y-62121269D01*
X149408795Y-62134588D01*
X149387099Y-62328011D01*
X149387051Y-62341659D01*
X149407396Y-62535228D01*
X149410280Y-62548568D01*
X149471717Y-62733253D01*
X149477398Y-62745662D01*
X149532590Y-62838248D01*
X149480264Y-62924650D01*
X149474496Y-62937019D01*
X149417347Y-63104895D01*
X149492738Y-63210200D01*
X149949213Y-63210201D01*
X150081960Y-63263834D01*
X150095092Y-63267551D01*
X150287003Y-63300010D01*
X150300626Y-63300819D01*
X150495029Y-63291311D01*
X150508509Y-63289176D01*
X150696335Y-63238145D01*
X150709042Y-63233165D01*
X150752969Y-63210200D01*
X150826647Y-63210201D01*
X150834511Y-63216235D01*
X150848814Y-63224493D01*
X151079361Y-63319989D01*
X151095315Y-63324264D01*
X151280622Y-63348660D01*
X151288854Y-63349200D01*
X152564412Y-63349200D01*
X154233801Y-65018589D01*
X154233800Y-65448599D01*
X154233800Y-65448600D01*
X154233801Y-76832235D01*
X154226164Y-76890241D01*
X154226164Y-76906759D01*
X154258737Y-77154164D01*
X154263012Y-77170118D01*
X154358506Y-77400666D01*
X154366765Y-77414970D01*
X154478036Y-77559980D01*
X154518677Y-77612945D01*
X154530356Y-77624624D01*
X154576774Y-77660242D01*
X165486000Y-88569469D01*
X165486001Y-90621858D01*
X165343142Y-90660137D01*
X165318662Y-90672880D01*
X165162410Y-90803990D01*
X165148239Y-90820879D01*
X165047641Y-90995120D01*
X165040100Y-91015837D01*
X165006122Y-91208538D01*
X165005163Y-91219499D01*
X165005163Y-92933258D01*
X165007319Y-92949634D01*
X165082137Y-93228859D01*
X165094880Y-93253339D01*
X165225990Y-93409590D01*
X165230787Y-93413615D01*
X165162410Y-93470990D01*
X165148239Y-93487879D01*
X165047641Y-93662120D01*
X165040100Y-93682837D01*
X165006122Y-93875538D01*
X165005163Y-93886499D01*
X165005163Y-94540191D01*
X165078972Y-94614000D01*
X166295192Y-94614001D01*
X166295193Y-94614000D01*
X166625000Y-94614001D01*
X166624999Y-96160028D01*
X166698808Y-96233837D01*
X167355258Y-96233837D01*
X167371634Y-96231681D01*
X167650859Y-96156863D01*
X167675339Y-96144120D01*
X167831590Y-96013010D01*
X167845761Y-95996121D01*
X167946359Y-95821880D01*
X167953900Y-95801163D01*
X167960525Y-95763593D01*
X168035798Y-95844032D01*
X168043722Y-95851180D01*
X168235792Y-95996968D01*
X168244808Y-96002679D01*
X168458696Y-96114021D01*
X168468545Y-96118131D01*
X168698134Y-96191844D01*
X168708535Y-96194236D01*
X168947262Y-96228212D01*
X168957917Y-96228817D01*
X169198956Y-96222084D01*
X169209561Y-96220885D01*
X169446019Y-96173636D01*
X169456270Y-96170667D01*
X169681387Y-96084253D01*
X169690991Y-96079600D01*
X169898330Y-95956491D01*
X169907012Y-95950286D01*
X170090645Y-95794004D01*
X170098158Y-95786424D01*
X170252833Y-95601435D01*
X170258962Y-95592698D01*
X170306486Y-95511043D01*
X170404430Y-95659584D01*
X170411038Y-95667965D01*
X170575798Y-95844032D01*
X170583722Y-95851180D01*
X170775792Y-95996968D01*
X170784808Y-96002679D01*
X170998696Y-96114021D01*
X171008545Y-96118131D01*
X171238134Y-96191844D01*
X171248535Y-96194236D01*
X171487262Y-96228212D01*
X171497917Y-96228817D01*
X171738956Y-96222084D01*
X171749561Y-96220885D01*
X171986019Y-96173636D01*
X171996270Y-96170667D01*
X172221387Y-96084253D01*
X172230991Y-96079600D01*
X172438330Y-95956491D01*
X172447012Y-95950286D01*
X172630645Y-95794004D01*
X172638158Y-95786424D01*
X172792833Y-95601435D01*
X172798962Y-95592698D01*
X172846486Y-95511043D01*
X172944430Y-95659584D01*
X172951038Y-95667965D01*
X173115798Y-95844032D01*
X173123722Y-95851180D01*
X173315792Y-95996968D01*
X173324808Y-96002679D01*
X173538696Y-96114021D01*
X173548545Y-96118131D01*
X173778134Y-96191844D01*
X173788535Y-96194236D01*
X174027262Y-96228212D01*
X174037917Y-96228817D01*
X174278956Y-96222084D01*
X174289561Y-96220885D01*
X174526019Y-96173636D01*
X174536270Y-96170667D01*
X174761387Y-96084253D01*
X174770991Y-96079600D01*
X174978330Y-95956491D01*
X174987012Y-95950286D01*
X175170645Y-95794004D01*
X175178158Y-95786424D01*
X175332833Y-95601435D01*
X175338962Y-95592698D01*
X175386486Y-95511043D01*
X175484430Y-95659584D01*
X175491038Y-95667965D01*
X175655798Y-95844032D01*
X175663722Y-95851180D01*
X175855792Y-95996968D01*
X175864808Y-96002679D01*
X176078696Y-96114021D01*
X176088545Y-96118131D01*
X176318134Y-96191844D01*
X176328535Y-96194236D01*
X176567262Y-96228212D01*
X176577917Y-96228817D01*
X176818956Y-96222084D01*
X176829561Y-96220885D01*
X177066019Y-96173636D01*
X177076270Y-96170667D01*
X177301387Y-96084253D01*
X177310991Y-96079600D01*
X177518330Y-95956491D01*
X177527012Y-95950286D01*
X177710645Y-95794004D01*
X177718158Y-95786424D01*
X177872833Y-95601435D01*
X177878962Y-95592698D01*
X177926486Y-95511043D01*
X178024430Y-95659584D01*
X178031038Y-95667965D01*
X178195798Y-95844032D01*
X178203722Y-95851180D01*
X178395792Y-95996968D01*
X178404808Y-96002679D01*
X178618696Y-96114021D01*
X178628545Y-96118131D01*
X178858134Y-96191844D01*
X178868535Y-96194236D01*
X179107262Y-96228212D01*
X179117917Y-96228817D01*
X179358956Y-96222084D01*
X179369561Y-96220885D01*
X179606019Y-96173636D01*
X179616270Y-96170667D01*
X179841387Y-96084253D01*
X179850991Y-96079600D01*
X180058330Y-95956491D01*
X180067012Y-95950286D01*
X180250645Y-95794004D01*
X180258158Y-95786424D01*
X180412833Y-95601435D01*
X180418962Y-95592698D01*
X180466486Y-95511043D01*
X180564430Y-95659584D01*
X180571038Y-95667965D01*
X180735798Y-95844032D01*
X180743722Y-95851180D01*
X180935792Y-95996968D01*
X180944808Y-96002679D01*
X181158696Y-96114021D01*
X181168545Y-96118131D01*
X181398134Y-96191844D01*
X181408535Y-96194236D01*
X181647262Y-96228212D01*
X181657917Y-96228817D01*
X181898956Y-96222084D01*
X181909561Y-96220885D01*
X182146019Y-96173636D01*
X182156270Y-96170667D01*
X182381387Y-96084253D01*
X182390991Y-96079600D01*
X182598330Y-95956491D01*
X182607012Y-95950286D01*
X182790645Y-95794004D01*
X182798158Y-95786424D01*
X182952833Y-95601435D01*
X182958962Y-95592698D01*
X183006486Y-95511043D01*
X183104430Y-95659584D01*
X183111038Y-95667965D01*
X183275798Y-95844032D01*
X183283722Y-95851180D01*
X183475792Y-95996968D01*
X183484808Y-96002679D01*
X183698696Y-96114021D01*
X183708545Y-96118131D01*
X183938134Y-96191844D01*
X183948535Y-96194236D01*
X184187262Y-96228212D01*
X184197917Y-96228817D01*
X184438956Y-96222084D01*
X184449561Y-96220885D01*
X184686019Y-96173636D01*
X184696270Y-96170667D01*
X184921387Y-96084253D01*
X184930991Y-96079600D01*
X185138330Y-95956491D01*
X185147012Y-95950286D01*
X185330645Y-95794004D01*
X185338158Y-95786424D01*
X185492833Y-95601435D01*
X185498962Y-95592698D01*
X185546486Y-95511043D01*
X185644430Y-95659584D01*
X185651038Y-95667965D01*
X185815798Y-95844032D01*
X185823722Y-95851180D01*
X186015792Y-95996968D01*
X186024808Y-96002679D01*
X186238696Y-96114021D01*
X186248545Y-96118131D01*
X186478134Y-96191844D01*
X186488535Y-96194236D01*
X186727262Y-96228212D01*
X186737917Y-96228817D01*
X186978956Y-96222084D01*
X186989561Y-96220885D01*
X187226019Y-96173636D01*
X187236270Y-96170667D01*
X187461387Y-96084253D01*
X187470991Y-96079600D01*
X187678330Y-95956491D01*
X187687012Y-95950286D01*
X187870645Y-95794004D01*
X187878158Y-95786424D01*
X188032833Y-95601435D01*
X188038962Y-95592698D01*
X188086486Y-95511043D01*
X188184430Y-95659584D01*
X188191038Y-95667965D01*
X188355798Y-95844032D01*
X188363722Y-95851180D01*
X188555792Y-95996968D01*
X188564808Y-96002679D01*
X188778696Y-96114021D01*
X188788545Y-96118131D01*
X189018134Y-96191844D01*
X189028535Y-96194236D01*
X189267262Y-96228212D01*
X189277917Y-96228817D01*
X189518956Y-96222084D01*
X189529561Y-96220885D01*
X189766019Y-96173636D01*
X189776270Y-96170667D01*
X190001387Y-96084253D01*
X190010991Y-96079600D01*
X190218330Y-95956491D01*
X190227012Y-95950286D01*
X190410645Y-95794004D01*
X190418158Y-95786424D01*
X190572833Y-95601435D01*
X190578962Y-95592698D01*
X190700256Y-95384294D01*
X190704825Y-95374650D01*
X190789272Y-95148787D01*
X190792151Y-95138511D01*
X190837392Y-94901351D01*
X190838507Y-94890128D01*
X190841077Y-94622341D01*
X190840178Y-94611099D01*
X190799499Y-94373114D01*
X190796817Y-94362784D01*
X190716723Y-94135343D01*
X190712339Y-94125612D01*
X190595067Y-93914916D01*
X190589107Y-93906064D01*
X190438013Y-93718140D01*
X190430647Y-93710417D01*
X190250049Y-93550638D01*
X190241486Y-93544267D01*
X190036549Y-93417202D01*
X190027036Y-93412365D01*
X190017742Y-93408591D01*
X190218330Y-93289491D01*
X190227012Y-93283286D01*
X190410645Y-93127004D01*
X190418158Y-93119424D01*
X190572833Y-92934435D01*
X190578962Y-92925698D01*
X190700256Y-92717294D01*
X190704825Y-92707650D01*
X190789272Y-92481787D01*
X190792151Y-92471511D01*
X190837392Y-92234351D01*
X190838507Y-92223128D01*
X190841077Y-91955341D01*
X190840178Y-91944099D01*
X190799499Y-91706114D01*
X190796817Y-91695784D01*
X190716723Y-91468343D01*
X190712339Y-91458612D01*
X190595067Y-91247916D01*
X190589107Y-91239064D01*
X190438013Y-91051140D01*
X190430647Y-91043417D01*
X190250049Y-90883638D01*
X190241486Y-90877267D01*
X190036549Y-90750202D01*
X190027036Y-90745365D01*
X189803619Y-90654645D01*
X189793427Y-90651480D01*
X189557919Y-90599700D01*
X189547340Y-90598298D01*
X189306475Y-90586939D01*
X189295809Y-90587339D01*
X189056474Y-90616727D01*
X189046030Y-90618918D01*
X188815068Y-90688210D01*
X188805142Y-90692130D01*
X188589155Y-90799346D01*
X188580032Y-90804882D01*
X188385199Y-90946957D01*
X188377138Y-90953952D01*
X188209029Y-91126822D01*
X188202263Y-91135074D01*
X188086229Y-91303903D01*
X188055067Y-91247916D01*
X188049107Y-91239064D01*
X187898013Y-91051140D01*
X187890647Y-91043417D01*
X187710049Y-90883638D01*
X187701486Y-90877267D01*
X187496549Y-90750202D01*
X187487036Y-90745365D01*
X187263619Y-90654645D01*
X187253427Y-90651480D01*
X187017919Y-90599700D01*
X187007340Y-90598298D01*
X186766475Y-90586939D01*
X186755809Y-90587339D01*
X186516474Y-90616727D01*
X186506030Y-90618918D01*
X186275068Y-90688210D01*
X186265142Y-90692130D01*
X186049155Y-90799346D01*
X186040032Y-90804882D01*
X185845199Y-90946957D01*
X185837138Y-90953952D01*
X185669029Y-91126822D01*
X185662263Y-91135074D01*
X185546229Y-91303903D01*
X185515067Y-91247916D01*
X185509107Y-91239064D01*
X185358013Y-91051140D01*
X185350647Y-91043417D01*
X185288000Y-90987992D01*
X185288000Y-89229868D01*
X187832669Y-86685200D01*
X192757842Y-86685200D01*
X192815841Y-86692836D01*
X192832359Y-86692836D01*
X192898546Y-86684122D01*
X193079765Y-86660264D01*
X193095719Y-86655989D01*
X193326266Y-86560493D01*
X193340570Y-86552235D01*
X193538545Y-86400324D01*
X193550224Y-86388645D01*
X193585845Y-86342223D01*
X196366000Y-83562069D01*
X196366000Y-93281638D01*
X196296643Y-93167116D01*
X196291709Y-93160096D01*
X196105429Y-92930060D01*
X196099588Y-92923775D01*
X195883812Y-92721147D01*
X195877172Y-92715713D01*
X195635893Y-92544244D01*
X195628577Y-92539761D01*
X195366259Y-92402625D01*
X195358403Y-92399176D01*
X195079900Y-92298909D01*
X195071648Y-92296558D01*
X194782115Y-92235016D01*
X194773620Y-92233807D01*
X194478413Y-92212128D01*
X194469833Y-92212083D01*
X194174415Y-92230669D01*
X194165908Y-92231789D01*
X193875746Y-92290297D01*
X193867470Y-92292561D01*
X193587933Y-92389905D01*
X193580041Y-92393272D01*
X193316301Y-92527654D01*
X193308939Y-92532060D01*
X193065876Y-92700992D01*
X193059181Y-92706357D01*
X192841294Y-92906713D01*
X192835388Y-92912937D01*
X192646709Y-93141011D01*
X192641702Y-93147979D01*
X192485723Y-93399549D01*
X192481708Y-93407131D01*
X192361312Y-93677543D01*
X192358364Y-93685601D01*
X192275782Y-93969850D01*
X192273954Y-93978233D01*
X192230713Y-94271059D01*
X192230040Y-94279613D01*
X192226941Y-94575598D01*
X192227435Y-94584164D01*
X192264533Y-94877832D01*
X192266185Y-94886252D01*
X192342797Y-95172168D01*
X192345576Y-95180285D01*
X192460281Y-95453159D01*
X192464136Y-95460824D01*
X192614813Y-95715606D01*
X192619673Y-95722677D01*
X192803534Y-95954652D01*
X192809309Y-95960998D01*
X193022951Y-96165873D01*
X193029533Y-96171377D01*
X193269005Y-96345363D01*
X193276273Y-96349922D01*
X193306258Y-96366000D01*
X143619120Y-96366000D01*
X143840521Y-96215536D01*
X143847273Y-96210242D01*
X144067246Y-96012178D01*
X144073216Y-96006016D01*
X144264273Y-95779930D01*
X144269353Y-95773015D01*
X144427959Y-95523093D01*
X144432053Y-95515553D01*
X144555273Y-95246417D01*
X144558305Y-95238391D01*
X144643859Y-94955022D01*
X144645775Y-94946659D01*
X144646226Y-94943808D01*
X165005163Y-94943808D01*
X165005163Y-95600258D01*
X165007319Y-95616634D01*
X165082137Y-95895859D01*
X165094880Y-95920339D01*
X165225990Y-96076590D01*
X165242879Y-96090761D01*
X165417120Y-96191359D01*
X165437837Y-96198900D01*
X165630538Y-96232878D01*
X165641499Y-96233837D01*
X166295191Y-96233837D01*
X166369000Y-96160028D01*
X166369001Y-94943809D01*
X166295192Y-94870000D01*
X165078972Y-94869999D01*
X165005163Y-94943808D01*
X144646226Y-94943808D01*
X144692131Y-94653974D01*
X144692905Y-94644766D01*
X144696473Y-94303988D01*
X144695893Y-94294766D01*
X144655676Y-94001176D01*
X144653936Y-93992774D01*
X144574336Y-93707675D01*
X144571472Y-93699588D01*
X144453915Y-93427930D01*
X144449980Y-93420306D01*
X144296643Y-93167116D01*
X144291709Y-93160096D01*
X144105429Y-92930060D01*
X144099588Y-92923775D01*
X143883812Y-92721147D01*
X143877172Y-92715713D01*
X143635893Y-92544244D01*
X143628577Y-92539761D01*
X143366259Y-92402625D01*
X143358403Y-92399176D01*
X143079900Y-92298909D01*
X143071648Y-92296558D01*
X142782115Y-92235016D01*
X142773620Y-92233807D01*
X142478413Y-92212128D01*
X142469833Y-92212083D01*
X142174415Y-92230669D01*
X142165908Y-92231789D01*
X141875746Y-92290297D01*
X141867470Y-92292561D01*
X141587933Y-92389905D01*
X141580041Y-92393272D01*
X141316301Y-92527654D01*
X141308939Y-92532060D01*
X141065876Y-92700992D01*
X141059181Y-92706357D01*
X140841294Y-92906713D01*
X140835388Y-92912937D01*
X140646709Y-93141011D01*
X140641702Y-93147979D01*
X140634000Y-93160401D01*
X140634000Y-64341659D01*
X149387051Y-64341659D01*
X149407396Y-64535228D01*
X149410280Y-64548568D01*
X149471717Y-64733253D01*
X149477398Y-64745662D01*
X149577060Y-64912846D01*
X149585273Y-64923745D01*
X149718510Y-65065629D01*
X149728873Y-65074511D01*
X149889470Y-65184474D01*
X149901498Y-65190923D01*
X150081960Y-65263834D01*
X150095092Y-65267551D01*
X150287003Y-65300010D01*
X150300626Y-65300819D01*
X150495029Y-65291311D01*
X150508509Y-65289176D01*
X150696335Y-65238145D01*
X150709043Y-65233165D01*
X150728012Y-65223248D01*
X150796100Y-65262559D01*
X150816817Y-65270100D01*
X151009518Y-65304078D01*
X151020479Y-65305037D01*
X151684238Y-65305037D01*
X151700614Y-65302881D01*
X151979839Y-65228063D01*
X152004319Y-65215320D01*
X152160570Y-65084210D01*
X152174741Y-65067321D01*
X152275339Y-64893080D01*
X152282880Y-64872363D01*
X152316858Y-64679662D01*
X152317817Y-64668701D01*
X152317817Y-64004942D01*
X152315661Y-63988566D01*
X152240843Y-63709342D01*
X152238413Y-63704674D01*
X152260154Y-63658471D01*
X152264596Y-63645568D01*
X152283815Y-63560984D01*
X152208152Y-63466200D01*
X151996548Y-63466200D01*
X151905860Y-63413841D01*
X151885143Y-63406300D01*
X151692442Y-63372322D01*
X151681481Y-63371363D01*
X151017722Y-63371363D01*
X151001346Y-63373519D01*
X150722122Y-63448337D01*
X150721117Y-63448860D01*
X150715281Y-63445757D01*
X150702610Y-63440689D01*
X150515145Y-63388347D01*
X150501680Y-63386117D01*
X150307347Y-63375253D01*
X150293718Y-63375967D01*
X150101587Y-63407086D01*
X150088429Y-63410710D01*
X149948280Y-63466199D01*
X149493106Y-63466199D01*
X149417672Y-63570790D01*
X149471717Y-63733253D01*
X149477398Y-63745662D01*
X149532590Y-63838248D01*
X149480264Y-63924650D01*
X149474496Y-63937019D01*
X149411772Y-64121269D01*
X149408795Y-64134588D01*
X149387099Y-64328011D01*
X149387051Y-64341659D01*
X140634000Y-64341659D01*
X140634000Y-58596408D01*
X186569763Y-58596408D01*
X186569763Y-59252858D01*
X186571919Y-59269234D01*
X186646737Y-59548459D01*
X186659480Y-59572939D01*
X186790590Y-59729190D01*
X186807479Y-59743361D01*
X186981720Y-59843959D01*
X187002437Y-59851500D01*
X187195138Y-59885478D01*
X187206099Y-59886437D01*
X187859791Y-59886437D01*
X187933600Y-59812628D01*
X188189599Y-59812628D01*
X188263408Y-59886437D01*
X188919858Y-59886437D01*
X188936234Y-59884281D01*
X189215459Y-59809463D01*
X189239939Y-59796720D01*
X189396190Y-59665610D01*
X189410361Y-59648721D01*
X189510959Y-59474480D01*
X189518500Y-59453763D01*
X189552478Y-59261062D01*
X189553437Y-59250101D01*
X189553437Y-58596409D01*
X189479628Y-58522600D01*
X188263409Y-58522599D01*
X188189600Y-58596408D01*
X188189599Y-59812628D01*
X187933600Y-59812628D01*
X187933601Y-58596409D01*
X187859792Y-58522600D01*
X186643572Y-58522599D01*
X186569763Y-58596408D01*
X140634000Y-58596408D01*
X140634000Y-53740753D01*
X140803534Y-53954652D01*
X140809309Y-53960998D01*
X141022951Y-54165873D01*
X141029533Y-54171377D01*
X141269005Y-54345363D01*
X141276273Y-54349922D01*
X141537140Y-54489798D01*
X141544960Y-54493329D01*
X141822398Y-54596507D01*
X141830624Y-54598944D01*
X142119498Y-54663514D01*
X142127979Y-54664812D01*
X142422943Y-54689581D01*
X142431522Y-54689716D01*
X142727118Y-54674225D01*
X142735636Y-54673194D01*
X143026396Y-54617728D01*
X143034695Y-54615551D01*
X143315236Y-54521138D01*
X143323162Y-54517855D01*
X143588295Y-54386242D01*
X143595703Y-54381914D01*
X143840521Y-54215536D01*
X143847273Y-54210242D01*
X144067246Y-54012178D01*
X144073216Y-54006016D01*
X144264273Y-53779930D01*
X144269353Y-53773015D01*
X144427959Y-53523093D01*
X144432053Y-53515553D01*
X144555273Y-53246417D01*
X144558305Y-53238391D01*
X144643859Y-52955022D01*
X144645775Y-52946659D01*
X144692131Y-52653974D01*
X144692905Y-52644766D01*
X144696473Y-52303988D01*
X144695893Y-52294766D01*
X144655676Y-52001176D01*
X144653936Y-51992774D01*
X144574336Y-51707675D01*
X144571472Y-51699588D01*
X144453915Y-51427930D01*
X144449980Y-51420306D01*
X144296643Y-51167116D01*
X144291709Y-51160096D01*
X144105429Y-50930060D01*
X144099588Y-50923775D01*
X143883812Y-50721147D01*
X143877172Y-50715713D01*
X143762191Y-50634000D01*
X193162266Y-50634000D01*
X193065876Y-50700992D01*
M02*
