M48
; DRILL file {KiCad 5.99.0-unknown-r17856-55e56c6c} date Sat May 30 10:45:53 2020
; FORMAT={3:3/ absolute / metric / suppress leading zeros}
; #@! TF.CreationDate,2020-05-30T10:45:53+03:00
; #@! TF.GenerationSoftware,Kicad,Pcbnew,5.99.0-unknown-r17856-55e56c6c
FMAT,2
METRIC,TZ
T1C0.500
T2C1.000
T3C3.200
%
G90
G05
T1
X150351Y-60338
X150351Y-61338
X150351Y-62338
X150351Y-63338
X150351Y-64338
X151351Y-60338
X151351Y-61338
X151351Y-62338
X151351Y-63338
X151351Y-64338
T2
X188062Y-53315
X188062Y-55855
X188062Y-58395
X166497Y-66421
X166497Y-69088
X166497Y-92075
X166497Y-94742
X169037Y-66421
X169037Y-69088
X169037Y-92075
X169037Y-94742
X171577Y-66421
X171577Y-69088
X171577Y-92075
X171577Y-94742
X174117Y-66421
X174117Y-69088
X174117Y-92075
X174117Y-94742
X176657Y-66421
X176657Y-69088
X176657Y-92075
X176657Y-94742
X179197Y-66421
X179197Y-69088
X179197Y-92075
X179197Y-94742
X181737Y-66421
X181737Y-69088
X181737Y-92075
X181737Y-94742
X184277Y-66421
X184277Y-69088
X184277Y-92075
X184277Y-94742
X186817Y-66421
X186817Y-69088
X186817Y-92075
X186817Y-94742
X189357Y-66421
X189357Y-69088
X189357Y-92075
X189357Y-94742
T3
X142462Y-94451
X194462Y-94451
X194462Y-52451
X142462Y-52451
T0
M30
